<?xml version="1.0" encoding="UTF-8" standalone="yes"?>
<!DOCTYPE svg PUBLIC "-//W3C//DTD SVG 1.1//EN" "http://www.w3.org/Graphics/SVG/1.1/DTD/svg11.dtd">

<svg width="800" height="800" viewBox="0 0 800 800" xmlns="http://www.w3.org/2000/svg" xmlns:xlink="http://www.w3.org/1999/xlink" version="1.1" baseProfile="full">
    <g transform="scale(1.600000,-1.600000) translate(0,-500)">
        <path d="M 189.084000 1.086300 L 194.533800 1.502000 L 200.091100 2.247700 L 361.972400 28.961300 L 366.405000 29.837700 L 370.649500 30.877200 L 374.705000 32.080600 L 378.570900 33.449000 L 382.246500 34.983600 L 385.731000 36.685300 L 389.023800 38.555100 L 392.124100 40.594100 L 395.242200 43.070200 L 398.204800 45.976000 L 401.016300 49.309900 L 403.681300 53.071100 L 406.204500 57.257700 L 408.590200 61.868500 L 410.843200 66.902500 L 412.967900 72.357700 L 468.373500 224.583300 L 470.178400 229.922400 L 471.621800 235.037900 L 472.699300 239.931500 L 473.406600 244.604700 L 473.739100 249.059200 L 473.692500 253.296400 L 473.262300 257.317900 L 472.444100 261.125100 L 471.383400 264.563500 L 470.091300 267.981000 L 468.568400 271.378300 L 466.815300 274.755700 L 464.832900 278.113800 L 462.621600 281.453300 L 460.182200 284.774400 L 457.515300 288.078100 L 351.012000 412.562300 L 347.099100 416.889600 L 343.051800 420.882900 L 338.870600 424.540900 L 334.556000 427.862000 L 330.108700 430.844600 L 325.529100 433.487400 L 320.817900 435.788600 L 315.975600 437.746800 L 311.008100 439.359300 L 305.914500 440.627200 L 300.696000 441.551400 L 295.353200 442.132500 L 289.887100 442.371300 L 284.298600 442.268500 L 278.588500 441.825100 L 272.757700 441.041600 L 111.290900 414.064700 L 107.146500 413.253100 L 103.157600 412.282600 L 99.325000 411.152600 L 95.649600 409.862400 L 92.131900 408.411200 L 88.772900 406.798400 L 85.573200 405.023500 L 82.533600 403.085500 L 79.430000 400.702000 L 76.489500 397.903000 L 73.707800 394.690000 L 71.080600 391.064900 L 68.603400 387.029800 L 66.271900 382.586200 L 64.081800 377.736000 L 62.028600 372.480900 L 6.623000 220.255300 L 4.743800 214.704200 L 3.237500 209.392300 L 2.108400 204.317700 L 1.361100 199.478600 L 1.000000 194.873400 L 1.029600 190.500100 L 1.454200 186.357100 L 2.278300 182.442500 L 3.365400 178.886700 L 4.705700 175.337300 L 6.298100 171.793800 L 8.141300 168.255900 L 10.234300 164.723400 L 12.575800 161.195700 L 15.164900 157.672900 L 18.000100 154.154400 L 18.050700 154.094800 L 124.859700 29.609200 L 128.656800 25.462300 L 132.581200 21.637900 L 136.631400 18.136500 L 140.806000 14.958300 L 145.103600 12.104200 L 149.522900 9.574600 L 154.062300 7.370100 L 158.720400 5.491200 L 163.495900 3.938500 L 168.387300 2.712400 L 173.393300 1.813600 L 178.512300 1.242700 L 183.743000 1.000000 Z M 347.123300 390.503100 L 207.612400 413.726900 L 206.928000 413.821600 L 275.353900 425.253700 L 280.190300 425.906900 L 284.897500 426.281000 L 289.476800 426.377000 L 293.929700 426.195400 L 298.257500 425.737300 L 302.461400 425.003400 L 306.542900 423.994600 L 310.503300 422.711700 L 314.355600 421.151300 L 318.118600 419.305700 L 321.793000 417.173500 L 325.379400 414.753200 L 328.878200 412.043200 L 332.290000 409.042000 L 335.615400 405.748200 L 338.854900 402.160100 L 349.171700 390.101600 Z M 77.063700 367.008500 L 78.691000 371.198600 L 80.379600 375.004500 L 82.125100 378.427700 L 83.923200 381.470500 L 85.769400 384.134200 L 87.659400 386.420900 L 89.588900 388.332100 L 91.553400 389.870100 L 93.835500 391.321300 L 96.266100 392.660200 L 98.845300 393.886100 L 101.573300 394.998100 L 104.450300 395.995500 L 107.476400 396.877500 L 113.976800 398.291900 L 159.291300 405.862700 L 157.504200 404.833100 L 153.589800 402.214200 L 149.786700 399.297300 L 146.095000 396.083100 L 142.515000 392.573000 L 139.046800 388.768100 L 47.230900 281.322400 L 44.905500 278.442200 L 44.752300 278.233800 Z M 280.379000 47.807300 L 276.622500 48.098600 L 272.773200 48.611200 L 133.162900 71.649400 L 127.188500 72.949500 L 121.842200 74.642900 L 119.405700 75.634100 L 117.125900 76.720100 L 115.002300 77.900100 L 113.034100 79.173100 L 111.356900 80.517100 L 109.698700 82.198800 L 108.064000 84.219800 L 106.457400 86.581300 L 104.883400 89.284900 L 103.346600 92.332200 L 101.851500 95.724600 L 100.402700 99.463600 L 52.571500 230.878800 L 51.347000 234.478400 L 50.371400 237.855600 L 49.640300 241.008900 L 49.149000 243.937000 L 48.893100 246.638400 L 48.868100 249.111800 L 49.069500 251.355600 L 49.492800 253.368400 L 51.021800 257.713300 L 53.183700 262.097200 L 55.983700 266.516000 L 59.427000 270.966000 L 151.183800 378.342500 L 153.974000 381.408500 L 156.830300 384.220900 L 159.753400 386.781100 L 162.743500 389.090800 L 165.801400 391.151400 L 168.927300 392.964300 L 172.122000 394.531200 L 175.385600 395.853600 L 178.729900 396.936600 L 182.172900 397.786400 L 185.716300 398.402300 L 189.361200 398.783400 L 193.109300 398.928900 L 196.961800 398.838100 L 200.920300 398.510000 L 204.986000 397.943800 L 344.442100 374.729400 L 349.952500 373.530400 L 354.926500 371.942800 L 359.370600 369.972800 L 363.291000 367.626000 L 364.898300 366.348800 L 366.485900 364.751700 L 368.049300 362.833000 L 369.584300 360.591500 L 371.086300 358.025100 L 372.551100 355.132400 L 373.974200 351.911600 L 375.351200 348.360900 L 423.182400 216.945900 L 424.478800 213.145000 L 425.518700 209.580600 L 426.306500 206.254400 L 426.846400 203.168300 L 427.142900 200.324300 L 427.200400 197.724200 L 427.023100 195.370000 L 426.615500 193.263600 L 425.944200 191.037300 L 425.093500 188.781800 L 424.062700 186.498500 L 422.851300 184.188200 L 419.884100 179.491000 L 416.187400 174.698800 L 324.015600 67.272800 L 321.410700 64.409100 L 318.732500 61.774000 L 315.979800 59.367200 L 313.151100 57.188200 L 310.245100 55.236400 L 307.260300 53.511300 L 304.195300 52.012200 L 301.048900 50.738900 L 297.819400 49.690600 L 294.505600 48.866900 L 291.106000 48.267200 L 287.619400 47.891100 L 284.044200 47.737800 Z M 327.369100 98.365700 L 329.051200 98.404800 L 330.855700 98.797200 L 332.552300 99.522100 L 334.088600 100.563000 L 335.412600 101.903100 L 336.472200 103.525900 L 395.594600 217.778900 L 395.837100 218.392400 L 396.185100 219.186900 L 396.229300 219.384200 L 396.306100 219.578600 L 396.429100 220.276800 L 396.585300 220.974400 L 396.591100 221.196100 L 396.631600 221.426200 L 396.615100 222.122600 L 396.633200 222.818100 L 396.593200 223.048100 L 396.588000 223.270000 L 396.433600 223.967200 L 396.312100 224.666500 L 396.235700 224.861200 L 396.192000 225.058400 L 395.846200 225.853300 L 395.604900 226.467800 L 336.482500 341.381500 L 335.426700 343.006700 L 334.105800 344.349900 L 332.572000 345.394300 L 330.877200 346.123200 L 329.073500 346.519800 L 327.305700 346.564900 L 327.077900 346.587700 L 206.552100 346.587700 L 206.249800 346.557500 L 205.892800 346.567800 L 205.210700 346.453700 L 204.611500 346.393800 L 204.323700 346.305200 L 204.026800 346.255600 L 203.465000 346.041100 L 202.804000 345.837800 L 202.490100 345.668900 L 202.206800 345.560800 L 201.743300 345.267200 L 201.168400 344.958000 L 200.870800 344.714600 L 200.563300 344.519800 L 200.163100 344.135900 L 199.743300 343.792700 L 199.497300 343.497200 L 199.203500 343.215400 L 198.896100 342.775100 L 198.567500 342.380400 L 198.374700 342.028400 L 198.144500 341.698800 L 197.937200 341.229600 L 197.679700 340.759400 L 197.558600 340.372700 L 197.403400 340.021600 L 197.283700 339.495000 L 197.118700 338.968200 L 197.082100 338.608200 L 196.997300 338.235500 L 196.978300 337.588400 L 196.923000 337.045200 L 196.953500 336.745400 L 196.943100 336.392000 L 197.058300 335.715800 L 197.118700 335.122000 L 197.207900 334.836900 L 197.258100 334.542500 L 197.474500 333.985900 L 197.679700 333.330800 L 197.850200 333.019400 L 197.959300 332.738900 L 254.385600 222.159800 L 205.905200 128.309900 L 187.733100 163.719200 L 215.494000 217.807100 L 215.730200 218.410400 L 216.060100 219.157100 L 216.112200 219.386600 L 216.199400 219.609100 L 216.314800 220.277000 L 216.466300 220.943200 L 216.473700 221.197000 L 216.518700 221.457800 L 216.500800 222.121400 L 216.520400 222.786700 L 216.475800 223.048100 L 216.469000 223.301400 L 216.319200 223.967200 L 216.205300 224.636100 L 216.118800 224.858600 L 216.067100 225.088500 L 215.738400 225.837000 L 215.504100 226.439700 L 156.863200 341.353400 L 156.784800 341.474900 L 156.720100 341.625000 L 156.170200 342.428000 L 155.812900 342.982100 L 155.738800 343.057900 L 155.675000 343.151100 L 155.079700 343.732600 L 154.496500 344.329600 L 154.402800 344.393800 L 154.327100 344.467700 L 153.771900 344.826400 L 152.966100 345.379000 L 152.815200 345.444500 L 152.693200 345.523300 L 152.074800 345.765800 L 151.273700 346.113400 L 151.075100 346.157800 L 150.879600 346.234400 L 150.175700 346.358600 L 149.471400 346.515800 L 149.247800 346.522200 L 149.016300 346.563200 L 148.314300 346.549200 L 147.611200 346.569500 L 147.378900 346.530600 L 147.155700 346.526200 L 146.449900 346.375200 L 145.745000 346.257200 L 145.549300 346.182500 L 145.349800 346.139800 L 144.543800 345.798700 L 143.925000 345.562400 L 143.802500 345.484800 L 143.650800 345.420600 L 142.838700 344.874400 L 142.281500 344.521500 L 142.205300 344.448300 L 142.110900 344.384900 L 141.522500 343.793400 L 140.921800 343.216900 L 140.857000 343.124200 L 140.782300 343.049100 L 140.420600 342.499100 L 139.862800 341.700400 L 139.796700 341.550700 L 139.717200 341.429800 L 79.758600 226.516300 L 79.520300 225.919400 L 79.155500 225.088700 L 79.112800 224.898800 L 79.041000 224.719000 L 78.916600 224.026500 L 78.753500 223.301600 L 78.747700 223.086600 L 78.709200 222.872500 L 78.723200 222.180100 L 78.703700 221.458000 L 78.742300 221.234300 L 78.746500 221.028400 L 78.897900 220.333200 L 79.023000 219.609300 L 79.096700 219.421000 L 79.136400 219.238800 L 79.480600 218.440400 L 79.728400 217.807300 L 138.367600 103.550800 L 139.421700 101.924500 L 140.741200 100.580000 L 142.274000 99.534100 L 143.968100 98.803500 L 145.771300 98.405100 L 147.631700 98.355800 L 147.664100 98.361300 L 149.449200 98.408600 L 151.252400 98.806900 L 152.946500 99.537400 L 154.479400 100.583300 L 155.798900 101.927800 L 156.853100 103.554100 L 176.929700 142.670400 L 197.005900 103.550900 L 198.060000 101.924600 L 199.379500 100.580100 L 200.912300 99.534100 L 202.606400 98.803600 L 204.409600 98.405200 L 206.270000 98.355800 L 208.135300 98.672200 L 209.953700 99.371200 L 211.594900 100.415800 L 211.979900 100.786900 L 212.738100 101.301300 L 214.061200 102.642400 L 215.119700 104.265900 L 273.760600 217.784900 L 274.000400 218.392800 L 274.338100 219.156800 L 274.387400 219.373700 L 274.470800 219.585100 L 274.590200 220.265900 L 274.744200 220.943000 L 274.751300 221.183700 L 274.795000 221.432900 L 274.778500 222.109300 L 274.798400 222.786500 L 274.755900 223.036100 L 274.750000 223.276700 L 274.599500 223.954100 L 274.483400 224.635900 L 274.401000 224.847900 L 274.352800 225.064800 L 274.019000 225.830500 L 273.782200 226.439600 L 222.211700 327.502600 L 248.381100 327.502600 L 302.139200 222.147700 L 245.715500 112.202700 L 245.010100 110.400600 L 244.690900 108.551900 L 244.740700 106.708300 L 245.142700 104.921200 L 245.879900 103.242400 L 246.935400 101.723400 L 248.292100 100.415800 L 249.933200 99.371200 L 251.751600 98.672100 L 253.617000 98.355800 L 254.372200 98.375900 L 254.753000 98.337800 L 327.089400 98.337800 Z M 442.844400 204.207100 L 442.181300 208.455400 L 441.186200 212.905400 L 439.863500 217.559000 L 438.217400 222.418200 L 397.927100 333.114900 L 445.322300 277.718200 L 449.399000 272.446200 L 451.146100 269.826700 L 452.700500 267.218500 L 454.063300 264.621500 L 455.235500 262.035800 L 456.218200 259.461300 L 457.012500 256.898300 L 457.512900 254.459700 L 457.747900 251.756100 L 457.713200 248.789100 L 457.404300 245.560100 L 456.816800 242.070700 L 455.946300 238.322500 L 454.788300 234.317000 L 453.338300 230.055800 L 443.041400 201.765000 Z M 270.000200 117.422800 L 321.517500 217.807400 L 321.737500 218.369500 L 322.085400 219.156700 L 322.140600 219.399500 L 322.222800 219.609500 L 322.331700 220.239800 L 322.491500 220.942800 L 322.499400 221.210900 L 322.542100 221.458200 L 322.525100 222.086000 L 322.545700 222.786400 L 322.498700 223.062600 L 322.492200 223.301800 L 322.351200 223.928600 L 322.230800 224.635700 L 322.139100 224.871700 L 322.090200 225.088900 L 321.780000 225.795400 L 321.529600 226.439400 L 269.961400 327.502600 L 322.006200 327.502600 L 376.211600 222.145700 L 322.020700 117.422800 Z M 99.132900 222.096600 L 148.175200 316.088700 L 196.114800 222.145700 L 176.930600 184.768400 L 155.534800 226.459200 L 154.480700 228.085500 L 153.161300 229.430000 L 151.628500 230.476000 L 149.934400 231.206600 L 148.131100 231.605000 L 146.270800 231.654400 L 144.405300 231.338000 L 142.586900 230.638900 L 140.945900 229.594300 L 139.589100 228.286700 L 138.533700 226.767700 L 137.796500 225.088900 L 137.394500 223.301800 L 137.344600 221.458200 L 137.663900 219.609500 L 138.369200 217.807400 L 166.127200 163.719500 L 147.609700 127.641000 Z M 30.234400 164.466100 L 27.926400 167.324900 L 25.826100 170.167800 L 23.942000 172.981900 L 22.273100 175.766900 L 20.818300 178.522500 L 19.576200 181.248400 L 18.545900 183.944300 L 17.726100 186.609700 L 17.213900 189.159400 L 16.979500 191.990200 L 17.027500 195.100600 L 17.362300 198.488700 L 17.988300 202.152800 L 18.910000 206.091000 L 20.131800 210.301700 L 21.658100 214.783000 L 32.949700 245.806400 L 33.143700 243.031800 L 33.752700 238.906800 L 34.690900 234.595200 L 35.953600 230.095600 L 37.536400 225.406500 L 81.437700 104.788600 Z M 310.614900 37.360200 L 314.592400 39.293500 L 318.462200 41.510700 L 322.222800 44.011200 L 325.872800 46.794900 L 329.410900 49.861000 L 332.835400 53.209000 L 336.145100 56.838300 L 428.384100 164.343400 L 430.278200 166.698200 L 397.932900 77.830200 L 396.220600 73.410200 L 394.451100 69.392600 L 392.628900 65.775800 L 390.758500 62.558600 L 388.844500 59.739600 L 386.891600 57.317400 L 384.904200 55.290800 L 382.886900 53.658300 L 380.571500 52.141200 L 378.074200 50.736500 L 375.395300 49.445400 L 372.535100 48.268900 L 369.493700 47.208300 L 366.271500 46.264800 L 362.868700 45.439500 L 359.285500 44.733700 L 307.859400 36.247600 Z M 180.033000 17.167900 L 175.921300 17.610000 L 171.909600 18.316900 L 167.996400 19.289000 L 164.180300 20.526900 L 160.459800 22.031100 L 156.833600 23.802000 L 153.300300 25.840200 L 149.858400 28.146200 L 146.506500 30.720400 L 143.243300 33.563400 L 140.067200 36.675700 L 136.976900 40.057600 L 121.674000 57.893300 L 122.805400 57.559500 L 126.527900 56.652200 L 130.410800 55.887400 L 130.488000 55.874400 L 270.207000 32.818500 L 275.089300 32.174300 L 279.876900 31.818400 L 280.926300 31.803200 L 197.506500 18.037500 L 192.981200 17.425500 L 188.561500 17.076200 L 184.245900 16.990200 Z" transform="scale(1.000000,1.000000) translate(13.724300,28.336200)" fill="#fffefe" opacity="1.000000"></path>
    </g>
</svg>