<?xml version="1.0" encoding="UTF-8" standalone="no"?>
<svg
   version="1.1"
   viewBox="0 0 1024 1024"
   width="1024.0pt"
   height="1024.0pt"
   id="svg130"
   sodipodi:docname="qsd-neon-80-cat-center-no-text.svg"
   inkscape:version="1.4.2 (ebf0e940, 2025-05-08)"
   xmlns:inkscape="http://www.inkscape.org/namespaces/inkscape"
   xmlns:sodipodi="http://sodipodi.sourceforge.net/DTD/sodipodi-0.dtd"
   xmlns:xlink="http://www.w3.org/1999/xlink"
   xmlns="http://www.w3.org/2000/svg"
   xmlns:svg="http://www.w3.org/2000/svg">
  <sodipodi:namedview
     id="namedview130"
     pagecolor="#505050"
     bordercolor="#eeeeee"
     borderopacity="1"
     inkscape:showpageshadow="0"
     inkscape:pageopacity="0"
     inkscape:pagecheckerboard="0"
     inkscape:deskcolor="#505050"
     inkscape:document-units="pt"
     showguides="false"
     inkscape:zoom="0.23452071"
     inkscape:cx="441.32563"
     inkscape:cy="554.32204"
     inkscape:window-width="1512"
     inkscape:window-height="945"
     inkscape:window-x="0"
     inkscape:window-y="37"
     inkscape:window-maximized="0"
     inkscape:current-layer="svg130" />
  <defs
     id="defs1">
    <path
       d="M 0.00 0.00 L 1024.00 0.00 L 1024.00 1024.00 L 0.00 1024.00 L 0.00 0.00 Z M 483.83 119.76 C 482.43 118.97 481.43 117.82 480.28 116.72 C 476.26 112.71 471.80 109.01 466.91 106.11 C 459.74 101.88 451.25 100.30 443.40 97.60 C 437.56 95.62 431.50 94.60 425.34 95.44 C 420.51 96.10 415.40 95.84 410.91 97.88 C 409.45 98.66 408.06 99.91 409.30 101.60 C 412.63 103.51 416.25 104.19 419.29 106.71 C 424.74 111.13 430.03 115.19 434.30 120.69 C 437.84 125.17 441.04 129.86 444.95 134.04 C 447.62 137.14 451.13 140.47 449.97 144.98 C 449.04 145.31 448.04 145.34 446.97 145.09 C 439.26 143.72 432.91 138.27 425.56 136.60 C 421.41 136.17 417.15 136.38 412.97 136.37 C 409.05 136.18 405.16 138.81 402.38 141.34 C 401.19 142.43 399.80 145.23 401.54 146.40 C 406.04 148.65 410.64 150.13 414.67 153.32 C 420.79 158.32 426.70 163.13 431.80 169.19 C 438.36 176.49 444.87 183.59 447.74 193.24 C 448.70 196.35 449.23 199.39 447.24 202.24 C 446.22 203.69 445.15 202.57 444.06 201.93 C 441.56 200.16 439.32 197.98 437.05 195.94 C 432.53 191.78 426.84 188.87 421.76 185.23 C 412.02 178.37 400.05 172.82 387.98 172.62 C 385.98 172.43 385.10 174.80 384.19 176.19 C 377.16 189.87 373.96 205.67 374.24 221.00 C 374.13 231.36 373.82 241.55 374.36 251.94 C 375.04 258.63 377.44 265.23 377.93 271.97 C 377.91 274.70 376.13 277.52 374.84 279.85 C 373.18 282.64 371.82 285.57 370.60 288.59 C 368.52 293.86 365.67 298.22 365.24 304.05 C 364.78 310.00 362.05 314.95 362.22 320.97 C 362.02 326.93 362.93 333.55 361.31 339.32 C 360.32 343.29 354.55 343.62 352.79 346.90 C 352.07 348.76 352.07 350.97 353.41 352.57 C 356.37 353.59 359.68 353.64 362.75 354.27 C 365.36 360.53 366.77 369.03 365.77 375.74 C 363.94 376.59 361.97 377.27 360.26 378.36 C 359.04 379.92 360.34 382.53 362.22 382.86 C 365.86 384.03 369.77 383.39 372.18 386.83 C 375.97 392.00 380.16 397.22 383.00 402.98 C 381.52 405.68 378.98 407.66 377.66 410.62 C 376.75 411.99 378.85 413.83 380.05 414.07 C 382.99 413.73 385.88 410.86 388.96 410.96 C 390.80 411.02 392.13 412.43 393.37 413.62 C 396.11 416.52 398.65 419.78 400.87 423.10 C 401.96 424.88 402.94 426.55 401.57 428.53 C 399.39 430.55 396.08 430.20 393.44 429.50 C 388.11 427.84 383.03 424.70 378.45 421.56 C 370.09 415.69 361.88 407.91 357.37 398.63 C 351.52 386.10 350.90 372.63 347.02 359.99 C 345.43 354.50 341.94 350.07 340.42 344.56 C 339.56 341.57 338.40 338.75 337.06 335.95 C 335.22 332.06 334.89 328.19 332.38 324.62 C 329.71 320.89 327.18 316.15 323.20 313.80 C 316.83 309.55 310.00 307.00 303.04 303.97 C 300.41 302.79 297.57 301.57 295.56 299.45 C 292.33 296.07 290.49 291.11 286.32 288.71 C 282.07 286.36 277.11 285.12 272.55 283.46 C 263.91 280.33 255.05 278.18 246.19 275.82 C 240.92 274.51 236.28 271.94 230.95 271.00 C 225.30 269.78 219.75 269.93 214.00 269.85 C 208.45 269.68 203.33 271.45 197.95 272.97 C 195.07 273.99 192.04 274.57 190.58 277.59 C 187.50 283.54 185.87 290.28 183.55 296.56 C 180.70 304.25 179.42 312.24 177.05 320.06 C 175.42 325.46 174.08 330.94 172.28 336.30 C 169.82 343.56 167.25 350.52 166.24 358.18 C 165.09 365.82 161.26 373.54 163.70 381.33 C 165.25 385.87 167.33 391.81 171.85 394.16 C 177.35 397.34 183.41 399.66 189.45 401.57 C 195.96 403.63 202.02 406.20 208.81 407.29 C 217.46 409.14 226.37 411.42 235.24 412.51 C 244.25 413.01 253.25 412.77 261.89 409.91 C 266.20 408.48 269.74 405.26 274.03 403.93 C 276.30 403.47 279.44 403.20 281.45 404.55 C 283.60 407.23 284.15 411.28 285.60 414.41 C 287.31 418.61 290.32 421.57 292.67 425.33 C 296.64 432.54 297.91 441.06 301.45 448.54 C 306.86 460.81 312.44 472.35 322.06 481.95 C 333.80 493.64 348.12 502.94 363.13 509.88 C 365.20 510.93 367.08 511.81 367.60 514.32 C 368.48 518.35 368.47 522.84 367.84 526.91 C 367.28 529.55 365.99 532.24 363.01 532.59 C 360.70 532.27 358.44 530.76 356.51 529.50 C 340.82 518.56 326.74 506.22 312.65 493.34 C 306.46 487.89 300.46 482.20 294.58 476.43 C 291.31 473.21 291.48 469.25 289.50 465.50 C 287.78 463.56 285.51 462.18 283.85 460.13 C 281.44 457.14 279.79 453.66 277.28 450.73 C 273.35 445.87 267.87 441.66 264.60 436.40 C 261.81 431.98 263.76 425.92 260.17 421.83 C 258.22 419.72 254.95 418.11 252.53 420.53 C 249.93 423.33 247.60 426.20 244.45 428.44 C 241.59 430.45 240.58 433.88 238.07 436.07 C 233.88 438.28 227.35 438.27 224.16 442.16 C 220.75 446.30 221.23 453.09 218.99 457.99 C 215.85 465.45 209.46 470.16 205.36 476.39 C 203.62 478.97 204.09 482.54 206.92 484.09 C 211.77 486.64 217.89 486.84 222.94 489.07 C 232.40 493.27 240.63 499.56 250.33 503.67 C 255.93 506.11 261.98 506.88 267.57 509.41 C 276.99 513.55 284.49 521.45 293.14 526.86 C 297.61 529.69 302.07 532.51 306.29 535.71 C 313.78 541.34 322.36 546.49 328.88 553.11 C 329.78 553.99 330.50 554.90 331.11 555.99 C 328.85 559.40 325.04 561.29 323.33 565.34 C 319.55 574.20 317.06 583.33 317.25 593.04 C 317.82 601.07 319.05 608.99 320.10 616.97 C 321.39 625.28 325.10 632.02 328.44 639.55 C 329.41 642.16 330.88 645.02 330.88 647.84 C 325.80 648.66 320.12 647.81 315.03 647.39 C 303.25 647.49 292.64 646.22 281.29 650.29 C 266.61 654.94 256.62 669.75 257.16 685.03 C 256.97 692.62 261.44 699.31 266.13 704.89 C 268.23 707.41 271.00 708.92 274.07 709.94 C 281.25 712.34 288.38 714.98 295.97 715.33 C 300.97 715.95 305.98 715.55 310.96 716.30 C 318.91 717.39 326.86 718.46 334.83 719.39 C 339.29 719.90 343.53 720.95 347.99 721.22 C 355.90 721.64 363.23 720.55 371.00 719.93 C 380.00 718.53 388.94 720.59 398.15 718.16 C 406.79 715.92 414.97 713.77 424.00 713.88 C 430.01 713.78 435.25 715.53 441.16 716.84 C 448.01 718.71 454.96 720.07 462.06 720.54 C 474.40 721.06 487.44 719.79 499.67 721.38 C 505.09 722.14 506.43 726.65 510.16 729.83 C 514.15 733.11 519.94 734.41 525.00 734.43 C 556.00 734.41 587.00 734.41 618.00 734.43 C 627.10 734.50 634.83 730.29 641.74 724.74 C 646.55 720.76 651.92 720.50 657.82 719.66 C 666.77 718.29 676.00 718.31 685.00 719.10 C 703.08 721.20 721.76 712.82 735.37 701.35 C 743.46 694.23 751.55 686.10 756.32 676.33 C 762.59 663.85 762.95 649.90 768.80 636.80 C 769.82 634.98 770.70 633.08 773.00 632.76 C 774.94 632.60 777.93 631.81 778.49 634.44 C 779.02 641.93 778.19 649.54 778.75 657.04 C 779.90 667.05 788.59 675.96 799.04 675.23 C 805.66 674.23 812.32 670.80 816.20 665.20 C 822.31 656.27 828.01 647.19 828.25 636.00 C 828.92 621.61 822.77 608.57 815.36 596.65 C 812.23 592.00 808.52 586.16 803.36 583.64 C 792.37 578.31 779.64 576.84 767.76 579.75 C 761.79 581.40 756.25 585.70 751.06 589.06 C 742.44 595.00 733.89 602.45 728.55 611.57 C 725.21 617.34 723.38 623.47 721.89 629.92 C 720.27 636.18 718.51 642.43 716.64 648.62 C 714.23 657.36 708.29 665.86 700.28 670.28 C 695.27 672.59 688.79 674.97 683.26 673.66 C 682.09 670.89 683.68 667.13 684.31 664.31 C 688.47 650.81 691.47 637.09 692.30 622.96 C 693.04 614.66 693.35 606.33 693.42 598.00 C 693.37 591.66 693.23 584.48 695.49 578.48 C 701.89 576.11 709.16 575.65 715.88 574.66 C 730.85 572.44 746.89 569.76 760.93 563.93 C 768.42 560.45 776.27 556.85 782.89 551.87 C 786.13 549.46 789.37 547.04 792.52 544.52 C 796.26 541.54 798.88 537.61 802.59 534.61 C 807.12 530.80 811.69 527.97 814.42 522.46 C 815.66 519.94 816.09 516.24 813.77 514.19 C 807.30 508.47 796.93 506.46 790.14 501.85 C 783.79 497.20 778.46 490.62 775.83 483.15 C 774.11 478.29 775.19 473.24 776.46 468.43 C 778.49 461.43 780.40 454.71 784.73 448.71 C 789.45 441.63 796.00 437.75 801.85 431.85 C 804.82 428.88 808.03 425.88 810.36 422.38 C 813.14 417.99 813.24 413.02 812.82 408.00 C 812.19 402.00 813.38 396.51 811.27 390.69 C 808.53 381.15 801.21 375.23 794.35 368.66 C 789.44 363.83 783.40 361.09 776.89 359.10 C 770.65 357.34 764.55 355.65 758.00 355.60 C 747.84 355.61 738.57 354.82 728.97 358.98 C 718.15 364.40 706.36 367.89 695.60 373.59 C 691.36 375.92 687.34 378.66 683.26 381.27 C 674.66 386.81 666.99 393.34 657.78 397.79 C 650.67 401.35 643.06 403.42 635.98 406.99 C 633.87 407.92 631.48 409.45 629.11 408.89 C 628.09 406.19 629.90 403.47 631.21 401.21 C 636.43 393.00 641.67 384.24 645.09 375.10 C 647.01 370.05 647.17 364.94 647.55 359.63 C 647.98 353.94 649.78 348.69 649.84 343.03 C 650.04 335.76 650.28 328.18 649.11 320.99 C 647.97 313.49 647.34 306.41 644.81 299.20 C 643.70 295.47 641.52 292.04 642.19 288.08 C 643.33 282.00 645.11 275.88 647.03 270.00 C 648.67 264.29 649.13 258.36 650.55 252.57 C 652.33 244.88 650.82 237.75 651.17 230.00 C 651.36 225.75 651.32 221.48 651.53 217.23 C 652.40 209.99 651.04 202.19 649.95 195.00 C 649.07 188.28 647.28 181.15 643.67 175.35 C 641.37 171.91 637.08 171.76 633.37 172.41 C 622.11 174.57 610.38 178.33 600.85 184.85 C 594.36 189.41 587.91 193.61 582.45 199.44 C 579.85 202.17 577.17 203.58 573.33 203.59 C 570.73 199.89 570.18 195.02 571.79 190.80 C 573.55 186.16 576.23 181.86 578.38 177.37 C 580.39 173.32 583.50 170.75 586.47 167.48 C 591.88 161.70 595.80 155.01 600.89 148.90 C 602.85 146.28 605.39 143.53 605.10 140.00 C 604.87 138.61 605.22 136.99 603.55 136.49 C 599.76 136.10 595.73 136.06 592.00 136.94 C 583.40 139.17 575.65 142.61 566.99 143.94 C 566.03 144.03 565.07 144.02 564.10 143.92 C 563.72 138.32 565.41 132.26 568.71 127.70 C 571.83 123.21 575.70 119.36 579.95 115.95 C 584.24 112.58 588.15 108.79 592.54 105.55 C 594.52 103.87 597.06 102.27 596.61 99.29 C 596.21 96.17 594.19 94.11 590.95 94.28 C 581.73 94.78 572.43 97.32 563.97 100.98 C 558.50 103.31 552.57 104.60 547.32 107.31 C 540.02 111.31 534.55 119.22 527.11 122.87 C 522.26 117.53 520.67 108.73 519.05 101.96 C 516.99 93.32 515.83 83.04 510.19 75.83 C 508.09 73.18 505.70 72.46 502.45 73.53 C 499.28 74.52 498.01 77.82 496.48 80.46 C 494.21 85.16 492.11 89.65 491.80 94.95 C 490.86 103.18 489.52 113.29 483.83 119.76 Z M 431.51 181.49 C 431.49 181.51 431.49 181.51 431.51 181.49 Z M 233.98 211.03 C 233.34 219.00 228.77 224.04 226.23 231.26 C 222.72 239.84 223.44 250.53 228.76 258.25 C 229.98 259.93 232.86 260.63 234.74 259.85 C 236.08 257.89 235.82 254.78 236.54 252.50 C 238.52 242.45 249.50 235.96 253.17 226.17 C 257.46 214.68 255.05 201.23 247.18 191.84 C 243.40 187.26 237.92 183.02 231.98 181.91 C 230.61 181.61 227.88 182.27 228.09 184.11 C 229.13 193.81 234.61 200.89 233.98 211.03 Z M 278.53 229.78 C 277.09 238.42 272.35 244.91 270.21 253.17 C 268.66 259.46 269.73 266.30 273.22 271.76 C 274.40 273.43 276.47 274.89 278.42 273.44 C 280.29 270.87 281.32 267.66 282.87 264.89 C 286.64 257.82 293.43 251.38 295.65 243.71 C 297.35 235.76 295.83 226.69 290.85 220.14 C 288.56 217.26 285.01 214.04 281.12 214.04 C 279.76 214.03 279.32 216.02 279.07 217.06 C 278.33 221.15 279.08 225.63 278.53 229.78 Z M 422.82 894.18 C 417.30 894.06 412.10 895.34 406.46 894.45 C 399.46 893.34 392.51 890.53 386.93 886.11 C 385.61 885.16 386.90 884.43 387.63 883.69 C 390.59 881.29 393.71 879.11 396.52 876.51 C 407.97 865.56 415.26 850.25 416.56 834.46 C 417.69 827.14 416.43 820.33 415.68 813.06 C 413.16 800.11 407.78 787.84 399.30 777.68 C 390.56 766.89 378.99 758.93 366.08 753.91 C 354.02 749.12 341.00 746.03 328.00 745.77 C 318.79 745.75 309.63 745.44 300.55 747.59 C 285.97 750.52 271.56 756.60 259.83 765.81 C 241.64 780.82 231.39 804.56 231.95 828.03 C 232.59 834.54 232.78 840.94 234.76 847.24 C 238.87 863.02 249.30 876.19 262.41 885.58 C 272.97 893.21 285.01 897.68 297.68 900.34 C 304.03 902.16 310.46 902.24 316.96 903.03 C 326.96 903.53 336.87 902.95 346.76 901.53 C 350.06 901.01 354.31 899.46 357.56 900.51 C 361.25 902.58 364.11 906.01 367.74 908.25 C 379.01 915.42 393.51 916.93 406.24 913.23 C 411.19 911.54 416.59 909.06 420.17 905.16 C 422.93 902.03 423.56 898.22 422.82 894.18 Z M 450.33 895.62 C 457.50 896.35 464.27 895.84 471.27 897.72 C 478.83 899.17 486.34 901.13 493.97 902.15 C 499.68 902.41 505.26 903.41 511.00 903.15 C 521.77 903.34 532.60 903.04 543.05 900.08 C 554.95 896.95 566.10 890.52 573.77 880.77 C 577.64 875.70 580.39 869.75 581.62 863.47 C 582.67 859.43 583.28 855.40 582.60 851.23 C 581.42 844.90 580.16 838.95 576.47 833.53 C 570.48 824.91 561.63 819.20 552.35 814.67 C 536.97 807.12 521.06 805.64 505.11 798.90 C 497.98 796.03 490.58 791.89 487.68 784.32 C 485.25 778.00 488.19 771.24 493.66 767.66 C 498.55 764.11 504.08 763.43 509.96 763.12 C 517.55 762.97 525.38 765.69 532.24 768.75 C 538.78 771.84 546.02 775.65 550.51 781.48 C 554.54 786.45 557.15 792.07 560.71 797.28 C 561.96 799.12 563.88 801.23 566.15 801.67 C 569.38 801.78 572.57 799.20 573.09 795.99 C 573.97 791.26 572.60 785.82 572.12 781.05 C 571.45 773.08 570.22 765.09 568.79 757.23 C 563.44 756.16 558.66 759.60 553.03 758.02 C 543.29 755.28 533.31 750.08 523.26 748.57 C 509.18 745.70 494.01 745.93 480.24 750.24 C 469.73 753.65 460.40 760.01 454.43 769.43 C 449.72 776.84 445.83 786.08 446.18 795.00 C 445.77 804.38 449.94 813.86 456.69 820.31 C 464.60 828.28 474.35 832.75 484.90 836.13 C 499.68 840.89 516.02 843.44 530.15 849.85 C 535.41 852.32 540.12 856.82 540.20 862.99 C 540.01 871.64 534.55 880.22 526.33 883.33 C 519.78 885.86 512.26 887.54 505.24 886.55 C 495.51 884.93 486.16 881.81 478.30 875.71 C 470.04 869.20 464.35 861.10 458.46 852.54 C 456.60 850.18 454.47 846.51 451.00 846.83 C 447.76 846.60 445.57 849.06 445.12 852.07 C 444.65 856.34 444.96 860.72 444.94 865.01 C 445.91 875.77 445.72 885.55 450.33 895.62 Z M 630.67 772.31 C 631.01 773.81 630.96 775.45 630.98 776.99 C 630.90 791.99 630.97 807.00 630.94 822.00 C 630.84 829.42 630.63 836.68 631.60 844.06 C 631.99 851.02 631.65 858.02 631.78 865.00 C 631.86 869.91 631.53 874.55 628.81 878.80 C 625.64 883.83 620.48 886.13 616.82 890.80 C 615.62 892.35 615.77 894.93 616.24 896.73 C 617.56 898.69 619.78 898.98 621.96 899.23 C 627.90 899.68 634.03 898.85 640.00 898.87 C 661.67 898.71 683.35 898.99 705.03 898.66 C 720.88 897.79 736.22 896.27 750.98 889.99 C 767.57 883.18 781.87 870.88 789.46 854.45 C 793.72 845.89 795.33 836.51 795.17 827.00 C 795.29 813.57 791.04 800.51 783.63 789.36 C 773.50 774.68 758.83 763.87 742.05 757.95 C 722.90 750.73 700.15 752.90 680.00 752.80 C 661.64 752.97 642.29 751.58 624.12 754.23 C 621.97 754.62 619.08 754.90 617.42 756.43 C 616.46 758.03 616.49 761.00 617.35 762.63 C 620.45 766.88 628.22 767.57 630.67 772.31 Z"
       id="p0" />
    <path
       d="M 502.45 73.53 C 505.70 72.46 508.09 73.18 510.19 75.83 C 515.83 83.04 516.99 93.32 519.05 101.96 C 520.67 108.73 522.26 117.53 527.11 122.87 C 534.55 119.22 540.02 111.31 547.32 107.31 C 552.57 104.60 558.50 103.31 563.97 100.98 C 572.43 97.32 581.73 94.78 590.95 94.28 C 594.19 94.11 596.21 96.17 596.61 99.29 C 597.06 102.27 594.52 103.87 592.54 105.55 C 588.15 108.79 584.24 112.58 579.95 115.95 C 575.70 119.36 571.83 123.21 568.71 127.70 C 565.41 132.26 563.72 138.32 564.10 143.92 C 565.07 144.02 566.03 144.03 566.99 143.94 C 575.65 142.61 583.40 139.17 592.00 136.94 C 595.73 136.06 599.76 136.10 603.55 136.49 C 605.22 136.99 604.87 138.61 605.10 140.00 C 605.39 143.53 602.85 146.28 600.89 148.90 C 595.80 155.01 591.88 161.70 586.47 167.48 C 583.50 170.75 580.39 173.32 578.38 177.37 C 576.23 181.86 573.55 186.16 571.79 190.80 C 570.18 195.02 570.73 199.89 573.33 203.59 C 577.17 203.58 579.85 202.17 582.45 199.44 C 587.91 193.61 594.36 189.41 600.85 184.85 C 610.38 178.33 622.11 174.57 633.37 172.41 C 637.08 171.76 641.37 171.91 643.67 175.35 C 647.28 181.15 649.07 188.28 649.95 195.00 C 651.04 202.19 652.40 209.99 651.53 217.23 C 651.32 221.48 651.36 225.75 651.17 230.00 C 650.82 237.75 652.33 244.88 650.55 252.57 C 649.13 258.36 648.67 264.29 647.03 270.00 C 645.11 275.88 643.33 282.00 642.19 288.08 C 641.52 292.04 643.70 295.47 644.81 299.20 C 647.34 306.41 647.97 313.49 649.11 320.99 C 650.28 328.18 650.04 335.76 649.84 343.03 C 649.78 348.69 647.98 353.94 647.55 359.63 C 647.17 364.94 647.01 370.05 645.09 375.10 C 641.67 384.24 636.43 393.00 631.21 401.21 C 629.90 403.47 628.09 406.19 629.11 408.89 C 631.48 409.45 633.87 407.92 635.98 406.99 C 643.06 403.42 650.67 401.35 657.78 397.79 C 666.99 393.34 674.66 386.81 683.26 381.27 C 687.34 378.66 691.36 375.92 695.60 373.59 C 706.36 367.89 718.15 364.40 728.97 358.98 C 738.57 354.82 747.84 355.61 758.00 355.60 C 764.55 355.65 770.65 357.34 776.89 359.10 C 783.40 361.09 789.44 363.83 794.35 368.66 C 801.21 375.23 808.53 381.15 811.27 390.69 C 813.38 396.51 812.19 402.00 812.82 408.00 C 813.24 413.02 813.14 417.99 810.36 422.38 C 808.03 425.88 804.82 428.88 801.85 431.85 C 796.00 437.75 789.45 441.63 784.73 448.71 C 780.40 454.71 778.49 461.43 776.46 468.43 C 775.19 473.24 774.11 478.29 775.83 483.15 C 778.46 490.62 783.79 497.20 790.14 501.85 C 796.93 506.46 807.30 508.47 813.77 514.19 C 816.09 516.24 815.66 519.94 814.42 522.46 C 811.69 527.97 807.12 530.80 802.59 534.61 C 798.88 537.61 796.26 541.54 792.52 544.52 C 789.37 547.04 786.13 549.46 782.89 551.87 C 776.27 556.85 768.42 560.45 760.93 563.93 C 746.89 569.76 730.85 572.44 715.88 574.66 C 709.16 575.65 701.89 576.11 695.49 578.48 C 693.23 584.48 693.37 591.66 693.42 598.00 C 693.35 606.33 693.04 614.66 692.30 622.96 C 691.47 637.09 688.47 650.81 684.31 664.31 C 683.68 667.13 682.09 670.89 683.26 673.66 C 688.79 674.97 695.27 672.59 700.28 670.28 C 708.29 665.86 714.23 657.36 716.64 648.62 C 718.51 642.43 720.27 636.18 721.89 629.92 C 723.38 623.47 725.21 617.34 728.55 611.57 C 733.89 602.45 742.44 595.00 751.06 589.06 C 756.25 585.70 761.79 581.40 767.76 579.75 C 779.64 576.84 792.37 578.31 803.36 583.64 C 808.52 586.16 812.23 592.00 815.36 596.65 C 822.77 608.57 828.92 621.61 828.25 636.00 C 828.01 647.19 822.31 656.27 816.20 665.20 C 812.32 670.80 805.66 674.23 799.04 675.23 C 788.59 675.96 779.90 667.05 778.75 657.04 C 778.19 649.54 779.02 641.93 778.49 634.44 C 777.93 631.81 774.94 632.60 773.00 632.76 C 770.70 633.08 769.82 634.98 768.80 636.80 C 762.95 649.90 762.59 663.85 756.32 676.33 C 751.55 686.10 743.46 694.23 735.37 701.35 C 721.76 712.82 703.08 721.20 685.00 719.10 C 676.00 718.31 666.77 718.29 657.82 719.66 C 651.92 720.50 646.55 720.76 641.74 724.74 C 634.83 730.29 627.10 734.50 618.00 734.43 C 587.00 734.41 556.00 734.41 525.00 734.43 C 519.94 734.41 514.15 733.11 510.16 729.83 C 506.43 726.65 505.09 722.14 499.67 721.38 C 487.44 719.79 474.40 721.06 462.06 720.54 C 454.96 720.07 448.01 718.71 441.16 716.84 C 435.25 715.53 430.01 713.78 424.00 713.88 C 414.97 713.77 406.79 715.92 398.15 718.16 C 388.94 720.59 380.00 718.53 371.00 719.93 C 363.23 720.55 355.90 721.64 347.99 721.22 C 343.53 720.95 339.29 719.90 334.83 719.39 C 326.86 718.46 318.91 717.39 310.96 716.30 C 305.98 715.55 300.97 715.95 295.97 715.33 C 288.38 714.98 281.25 712.34 274.07 709.94 C 271.00 708.92 268.23 707.41 266.13 704.89 C 261.44 699.31 256.97 692.62 257.16 685.03 C 256.62 669.75 266.61 654.94 281.29 650.29 C 292.64 646.22 303.25 647.49 315.03 647.39 C 320.12 647.81 325.80 648.66 330.88 647.84 C 330.88 645.02 329.41 642.16 328.44 639.55 C 325.10 632.02 321.39 625.28 320.10 616.97 C 319.05 608.99 317.82 601.07 317.25 593.04 C 317.06 583.33 319.55 574.20 323.33 565.34 C 325.04 561.29 328.85 559.40 331.11 555.99 C 330.50 554.90 329.78 553.99 328.88 553.11 C 322.36 546.49 313.78 541.34 306.29 535.71 C 302.07 532.51 297.61 529.69 293.14 526.86 C 284.49 521.45 276.99 513.55 267.57 509.41 C 261.98 506.88 255.93 506.11 250.33 503.67 C 240.63 499.56 232.40 493.27 222.94 489.07 C 217.89 486.84 211.77 486.64 206.92 484.09 C 204.09 482.54 203.62 478.97 205.36 476.39 C 209.46 470.16 215.85 465.45 218.99 457.99 C 221.23 453.09 220.75 446.30 224.16 442.16 C 227.35 438.27 233.88 438.28 238.07 436.07 C 240.58 433.88 241.59 430.45 244.45 428.44 C 247.60 426.20 249.93 423.33 252.53 420.53 C 254.95 418.11 258.22 419.72 260.17 421.83 C 263.76 425.92 261.81 431.98 264.60 436.40 C 267.87 441.66 273.35 445.87 277.28 450.73 C 279.79 453.66 281.44 457.14 283.85 460.13 C 285.51 462.18 287.78 463.56 289.50 465.50 C 291.48 469.25 291.31 473.21 294.58 476.43 C 300.46 482.20 306.46 487.89 312.65 493.34 C 326.74 506.22 340.82 518.56 356.51 529.50 C 358.44 530.76 360.70 532.27 363.01 532.59 C 365.99 532.24 367.28 529.55 367.84 526.91 C 368.47 522.84 368.48 518.35 367.60 514.32 C 367.08 511.81 365.20 510.93 363.13 509.88 C 348.12 502.94 333.80 493.64 322.06 481.95 C 312.44 472.35 306.86 460.81 301.45 448.54 C 297.91 441.06 296.64 432.54 292.67 425.33 C 290.32 421.57 287.31 418.61 285.60 414.41 C 284.15 411.28 283.60 407.23 281.45 404.55 C 279.44 403.20 276.30 403.47 274.03 403.93 C 269.74 405.26 266.20 408.48 261.89 409.91 C 253.25 412.77 244.25 413.01 235.24 412.51 C 226.37 411.42 217.46 409.14 208.81 407.29 C 202.02 406.20 195.96 403.63 189.45 401.57 C 183.41 399.66 177.35 397.34 171.85 394.16 C 167.33 391.81 165.25 385.87 163.70 381.33 C 161.26 373.54 165.09 365.82 166.24 358.18 C 167.25 350.52 169.82 343.56 172.28 336.30 C 174.08 330.94 175.42 325.46 177.05 320.06 C 179.42 312.24 180.70 304.25 183.55 296.56 C 185.87 290.28 187.50 283.54 190.58 277.59 C 192.04 274.57 195.07 273.99 197.95 272.97 C 203.33 271.45 208.45 269.68 214.00 269.85 C 219.75 269.93 225.30 269.78 230.95 271.00 C 236.28 271.94 240.92 274.51 246.19 275.82 C 255.05 278.18 263.91 280.33 272.55 283.46 C 277.11 285.12 282.07 286.36 286.32 288.71 C 290.49 291.11 292.33 296.07 295.56 299.45 C 297.57 301.57 300.41 302.79 303.04 303.97 C 310.00 307.00 316.83 309.55 323.20 313.80 C 327.18 316.15 329.71 320.89 332.38 324.62 C 334.89 328.19 335.22 332.06 337.06 335.95 C 338.40 338.75 339.56 341.57 340.42 344.56 C 341.94 350.07 345.43 354.50 347.02 359.99 C 350.90 372.63 351.52 386.10 357.37 398.63 C 361.88 407.91 370.09 415.69 378.45 421.56 C 383.03 424.70 388.11 427.84 393.44 429.50 C 396.08 430.20 399.39 430.55 401.57 428.53 C 402.94 426.55 401.96 424.88 400.87 423.10 C 398.65 419.78 396.11 416.52 393.37 413.62 C 392.13 412.43 390.80 411.02 388.96 410.96 C 385.88 410.86 382.99 413.73 380.05 414.07 C 378.85 413.83 376.75 411.99 377.66 410.62 C 378.98 407.66 381.52 405.68 383.00 402.98 C 380.16 397.22 375.97 392.00 372.18 386.83 C 369.77 383.39 365.86 384.03 362.22 382.86 C 360.34 382.53 359.04 379.92 360.26 378.36 C 361.97 377.27 363.94 376.59 365.77 375.74 C 366.77 369.03 365.36 360.53 362.75 354.27 C 359.68 353.64 356.37 353.59 353.41 352.57 C 352.07 350.97 352.07 348.76 352.79 346.90 C 354.55 343.62 360.32 343.29 361.31 339.32 C 362.93 333.55 362.02 326.93 362.22 320.97 C 362.05 314.95 364.78 310.00 365.24 304.05 C 365.67 298.22 368.52 293.86 370.60 288.59 C 371.82 285.57 373.18 282.64 374.84 279.85 C 376.13 277.52 377.91 274.70 377.93 271.97 C 377.44 265.23 375.04 258.63 374.36 251.94 C 373.82 241.55 374.13 231.36 374.24 221.00 C 373.96 205.67 377.16 189.87 384.19 176.19 C 385.10 174.80 385.98 172.43 387.98 172.62 C 400.05 172.82 412.02 178.37 421.76 185.23 C 426.84 188.87 432.53 191.78 437.05 195.94 C 439.32 197.98 441.56 200.16 444.06 201.93 C 445.15 202.57 446.22 203.69 447.24 202.24 C 449.23 199.39 448.70 196.35 447.74 193.24 C 444.87 183.59 438.36 176.49 431.80 169.19 C 426.70 163.13 420.79 158.32 414.67 153.32 C 410.64 150.13 406.04 148.65 401.54 146.40 C 399.80 145.23 401.19 142.43 402.38 141.34 C 405.16 138.81 409.05 136.18 412.97 136.37 C 417.15 136.38 421.41 136.17 425.56 136.60 C 432.91 138.27 439.26 143.72 446.97 145.09 C 448.04 145.34 449.04 145.31 449.97 144.98 C 451.13 140.47 447.62 137.14 444.95 134.04 C 441.04 129.86 437.84 125.17 434.30 120.69 C 430.03 115.19 424.74 111.13 419.29 106.71 C 416.25 104.19 412.63 103.51 409.30 101.60 C 408.06 99.91 409.45 98.66 410.91 97.88 C 415.40 95.84 420.51 96.10 425.34 95.44 C 431.50 94.60 437.56 95.62 443.40 97.60 C 451.25 100.30 459.74 101.88 466.91 106.11 C 471.80 109.01 476.26 112.71 480.28 116.72 C 481.43 117.82 482.43 118.97 483.83 119.76 C 489.52 113.29 490.86 103.18 491.80 94.95 C 492.11 89.65 494.21 85.16 496.48 80.46 C 498.01 77.82 499.28 74.52 502.45 73.53 Z M 504.82 160.62 C 506.52 157.91 507.98 155.10 509.10 152.10 C 511.03 146.93 513.72 142.76 513.29 136.97 C 512.40 129.91 509.92 123.07 508.99 116.01 C 508.27 109.78 507.03 103.35 504.75 97.50 L 504.16 97.36 C 501.65 103.63 500.35 110.64 499.33 117.32 C 497.95 124.62 496.41 131.47 496.70 139.01 C 496.68 144.48 499.97 150.00 501.93 155.08 C 502.88 156.63 503.36 159.66 504.82 160.62 Z M 482.45 177.57 C 484.99 177.89 487.73 176.86 490.26 176.38 C 492.13 175.90 494.13 175.79 495.71 174.73 C 494.71 169.57 492.33 164.58 490.18 159.81 C 481.43 141.28 469.01 124.54 451.45 113.54 C 449.02 112.13 446.11 110.23 443.23 110.18 C 443.19 110.86 443.39 111.52 443.85 112.16 C 446.44 115.80 450.08 118.61 452.77 122.21 C 463.47 136.18 471.54 152.37 478.37 168.53 C 479.63 171.60 480.82 174.67 482.45 177.57 Z M 515.29 174.64 C 520.11 175.66 525.85 176.01 530.60 174.58 C 532.17 173.14 532.98 170.75 533.82 168.83 C 540.04 152.97 547.05 137.90 556.95 123.96 C 559.77 120.16 563.23 116.85 566.05 113.05 C 566.38 112.52 566.61 111.93 566.74 111.28 C 559.89 113.23 553.42 117.45 547.93 121.91 C 533.22 134.23 522.34 151.26 516.49 169.48 C 515.90 171.16 515.38 172.84 515.29 174.64 Z M 460.12 188.85 C 463.32 187.85 466.29 185.96 468.98 183.99 C 470.30 183.09 469.47 182.15 468.94 181.08 C 464.21 173.41 458.69 166.04 451.60 160.38 C 448.11 157.63 444.22 155.66 440.21 153.78 C 436.92 152.27 433.55 150.26 430.07 149.36 C 430.95 151.84 432.90 153.44 434.62 155.39 C 438.56 159.51 442.19 163.84 445.51 168.48 C 450.41 175.16 454.55 182.73 460.12 188.85 Z M 558.86 186.13 C 563.03 179.50 566.26 172.31 570.94 165.95 C 574.25 161.05 578.75 156.86 581.82 151.85 L 581.88 150.95 C 580.13 150.48 578.08 151.80 576.53 152.53 C 564.92 158.64 553.61 166.21 546.72 177.69 C 545.23 179.65 547.87 180.79 549.07 181.91 C 551.87 183.76 555.47 185.98 558.86 186.13 Z M 421.90 356.77 C 414.39 357.75 407.45 356.41 400.00 356.00 C 391.74 355.60 383.78 354.27 375.47 355.11 C 376.15 359.87 376.13 365.46 378.18 369.85 C 379.53 372.82 382.35 372.11 385.02 371.96 C 395.46 370.30 407.10 366.85 418.05 366.67 C 419.56 366.59 420.52 367.41 421.68 368.22 C 421.55 368.76 421.17 369.19 420.54 369.52 C 409.21 375.88 394.54 376.59 383.32 381.22 C 384.60 386.15 387.55 392.17 391.11 395.85 C 400.23 392.34 408.21 385.42 416.90 380.88 C 419.06 379.42 422.42 378.47 424.62 380.26 C 424.29 383.75 420.86 385.51 418.27 387.26 C 410.98 392.04 402.59 396.14 396.26 402.18 C 397.42 404.33 399.56 406.00 401.27 407.73 C 414.72 419.62 430.66 426.51 447.29 432.71 C 450.30 433.76 453.79 435.55 457.00 435.33 C 461.03 433.99 463.96 430.39 468.27 429.31 C 476.47 427.31 485.77 429.09 492.01 434.99 C 494.41 436.97 496.62 440.06 499.96 440.17 C 509.40 440.66 518.78 440.06 528.02 438.04 C 536.26 436.72 544.39 435.06 552.55 433.38 C 572.87 428.37 592.89 419.67 608.69 405.71 C 625.37 391.06 635.27 368.79 637.59 346.94 C 637.98 339.82 638.16 332.57 637.43 325.46 C 636.01 316.04 633.84 306.81 629.94 298.08 C 628.04 293.89 626.61 290.06 628.54 285.52 C 631.85 277.57 634.50 269.41 635.96 260.91 C 638.08 253.69 638.04 246.40 638.91 239.00 C 639.70 223.73 639.04 208.64 637.41 193.45 C 636.76 190.16 636.07 185.71 633.74 183.20 C 630.56 182.97 627.01 184.95 624.06 186.05 C 599.39 196.60 579.55 214.18 563.16 235.14 C 561.32 237.46 559.78 240.60 557.32 242.30 C 553.34 243.82 549.08 244.54 545.09 246.09 C 536.35 249.62 527.32 251.12 518.00 252.04 C 507.23 253.48 496.49 253.00 485.76 251.52 C 475.42 250.71 464.58 248.49 455.32 243.68 C 449.20 240.51 444.11 235.64 442.11 228.89 C 440.82 224.24 442.57 219.00 441.51 214.44 C 440.26 211.99 437.87 209.97 435.78 208.22 C 424.62 199.22 412.20 191.61 398.98 186.02 C 396.27 185.09 393.67 183.79 391.48 186.51 C 389.19 190.01 389.05 195.27 388.22 199.31 C 385.37 212.07 385.47 225.97 385.78 239.00 C 386.12 249.54 388.47 259.62 390.28 269.96 C 391.16 275.01 388.56 279.11 386.45 283.45 C 382.45 291.12 378.77 298.46 376.92 307.00 C 375.99 311.71 374.52 316.13 374.20 320.96 C 373.56 328.17 373.23 335.67 374.19 342.86 C 374.34 345.18 376.95 344.88 378.61 345.41 C 384.73 346.95 390.92 346.82 397.12 347.77 C 405.50 349.21 413.12 349.58 421.11 352.88 C 422.73 353.53 422.65 355.48 421.90 356.77 Z M 505.75 186.19 C 501.99 186.40 498.23 186.49 494.46 186.60 C 493.25 187.64 490.91 189.81 491.59 191.58 C 493.21 193.99 496.76 194.88 499.19 193.17 C 501.79 191.41 504.22 188.93 505.75 186.19 Z M 536.54 187.58 C 532.48 187.67 528.39 187.01 524.35 187.34 C 524.50 189.02 525.92 189.81 526.96 191.03 C 528.86 192.87 531.24 195.89 534.00 196.20 C 536.32 195.94 538.37 193.51 539.62 191.69 C 540.04 190.24 537.42 188.56 536.54 187.58 Z M 514.70 215.45 C 518.09 211.55 522.02 208.28 525.75 204.73 C 526.49 203.79 528.07 202.83 527.38 201.46 C 523.71 197.54 519.87 193.73 516.02 189.98 C 514.77 188.85 513.51 189.38 512.48 190.48 C 509.38 193.71 505.67 196.34 502.70 199.68 C 501.34 201.50 502.42 203.73 503.97 205.04 C 507.51 208.41 510.92 212.42 514.70 215.45 Z M 465.26 201.28 C 465.33 202.85 466.97 203.93 467.95 205.05 C 470.50 207.44 472.82 210.17 475.54 212.37 C 477.42 213.14 478.26 211.58 479.53 210.53 C 482.97 207.12 488.35 203.73 490.45 199.30 C 487.35 196.52 484.55 193.44 481.53 190.58 C 479.71 190.63 476.73 189.85 475.48 191.50 C 472.23 194.98 468.79 198.11 465.26 201.28 Z M 539.08 202.99 C 541.89 207.27 545.55 211.21 549.16 214.83 C 552.69 213.38 556.00 209.18 557.89 205.94 C 556.99 202.84 554.52 199.96 552.10 197.89 C 550.19 196.49 547.85 194.96 545.56 196.55 C 543.14 198.25 540.63 200.45 539.08 202.99 Z M 456.11 229.89 C 461.09 227.14 465.35 222.35 469.22 218.21 C 470.55 216.89 469.03 215.84 468.35 214.65 C 466.12 211.76 463.71 208.69 460.74 206.53 C 459.91 206.03 458.93 207.89 458.41 208.38 C 455.72 212.10 453.81 216.51 453.12 221.05 C 452.67 224.36 453.97 227.43 456.11 229.89 Z M 492.00 230.94 C 496.71 228.29 500.87 224.45 504.93 220.92 C 507.06 219.37 504.86 217.58 503.99 216.01 C 501.53 212.87 498.51 209.13 495.01 207.20 C 490.75 209.47 487.11 213.31 483.47 216.47 C 482.42 217.56 480.54 218.72 481.57 220.46 C 484.30 224.44 487.75 228.55 492.00 230.94 Z M 531.99 234.48 C 536.40 231.55 539.67 226.15 543.51 222.48 C 544.32 221.64 545.06 221.04 543.96 220.01 C 540.61 216.67 537.82 212.84 534.47 209.51 C 533.52 208.70 532.94 207.81 531.62 208.64 C 527.40 211.14 523.90 215.03 520.71 218.71 C 518.68 220.64 521.29 222.93 522.34 224.63 C 525.21 227.95 528.14 232.34 531.99 234.48 Z M 562.59 214.40 C 559.81 214.09 558.36 216.88 556.50 218.50 C 555.06 219.40 555.04 222.63 556.96 222.74 C 559.32 222.08 560.03 219.35 561.53 217.53 C 562.43 216.48 562.54 215.74 562.59 214.40 Z M 464.19 233.85 C 466.66 235.60 469.97 236.30 472.84 237.17 C 476.57 238.10 481.03 239.03 484.80 237.92 C 483.68 234.10 480.90 230.63 478.56 227.45 C 477.26 226.02 475.73 223.49 473.45 224.45 C 470.10 226.36 466.08 230.50 464.19 233.85 Z M 499.31 239.52 C 507.88 241.11 516.09 239.82 524.65 239.46 C 524.74 236.74 522.59 235.86 521.01 233.98 C 518.47 231.54 516.34 228.57 513.58 226.38 C 512.24 225.78 510.40 226.41 509.46 227.51 C 506.33 230.66 502.50 233.34 499.83 236.85 C 499.15 237.58 498.97 238.47 499.31 239.52 Z M 541.36 235.67 C 545.09 235.84 549.31 232.89 549.81 229.10 C 547.69 229.03 545.66 230.86 544.02 232.05 C 542.83 233.16 541.33 233.84 541.36 235.67 Z M 284.82 324.72 C 286.40 319.74 288.20 314.25 288.04 308.98 C 287.77 304.00 284.61 299.98 280.28 297.74 C 267.97 291.82 255.07 287.55 241.77 284.46 C 234.10 283.37 226.78 281.13 219.00 280.80 C 214.01 280.55 208.57 280.39 203.74 281.80 C 199.93 283.14 198.04 286.29 196.93 289.99 C 192.60 301.72 189.86 313.67 186.75 325.78 C 184.50 332.41 182.87 339.26 180.94 345.99 C 178.32 353.99 176.32 362.20 174.46 370.40 C 173.84 373.87 173.36 378.35 175.73 381.27 C 178.85 385.70 184.39 388.49 189.11 390.89 C 200.91 396.66 213.96 400.12 227.05 401.16 C 236.63 402.35 247.15 403.05 256.54 400.42 C 260.40 399.05 264.08 397.85 265.40 393.52 C 271.51 370.73 278.69 347.46 284.82 324.72 Z M 329.71 339.73 C 329.61 336.81 327.86 333.90 326.78 331.21 C 323.27 322.97 314.46 318.45 306.00 317.09 C 303.23 316.60 300.23 317.32 299.23 320.21 C 298.57 322.91 297.89 325.94 298.19 328.71 C 301.97 332.64 308.30 334.63 313.54 335.57 C 318.96 336.70 324.29 338.89 329.71 339.73 Z M 292.25 399.27 C 291.25 402.30 292.52 405.20 294.57 407.44 C 297.95 410.97 302.26 413.66 306.95 415.05 C 309.92 416.00 314.07 417.14 315.66 420.10 C 314.65 423.17 309.74 425.38 307.24 427.31 C 306.89 431.46 309.08 435.66 310.46 439.54 C 318.99 460.91 334.14 480.61 355.10 490.92 C 359.61 493.00 363.89 495.70 368.53 497.48 C 370.04 497.96 371.88 498.49 372.85 496.81 C 374.40 493.80 374.98 490.23 376.00 487.00 C 380.10 471.78 387.47 457.42 391.56 442.25 C 381.01 436.62 370.66 432.62 361.55 424.43 C 353.30 416.78 346.16 407.08 342.73 396.27 C 341.01 391.38 340.19 386.05 339.04 380.97 C 337.63 374.57 338.23 368.78 335.28 362.72 C 331.32 354.55 323.13 348.35 314.73 345.28 C 309.27 342.95 303.02 342.49 297.20 343.42 C 294.54 343.96 291.83 344.97 290.53 347.55 C 288.63 351.07 287.19 355.74 288.31 359.71 C 290.35 363.16 294.11 364.74 297.96 365.11 C 303.22 365.60 308.97 364.45 313.75 367.26 C 317.28 369.75 319.16 374.73 318.84 378.95 C 318.18 384.51 316.00 389.99 311.14 393.15 C 305.42 396.63 298.22 397.54 292.25 399.27 Z M 625.10 416.98 C 625.23 418.65 626.81 419.97 627.99 420.99 C 630.60 422.95 633.66 424.54 636.97 424.77 C 647.30 425.76 657.44 425.80 667.34 422.34 C 676.26 419.20 685.36 416.06 693.83 411.83 C 712.45 402.58 728.28 390.64 749.07 386.12 C 756.08 385.02 763.24 383.16 770.33 384.64 C 778.07 385.94 785.14 389.76 790.47 395.52 C 792.89 397.76 794.97 401.44 797.93 402.85 C 799.23 392.40 793.10 382.17 785.19 375.80 C 777.92 370.48 768.71 367.75 759.94 366.20 C 753.58 365.33 747.29 365.25 741.05 366.99 C 724.86 371.13 710.28 378.39 696.13 387.14 C 686.57 393.15 678.39 400.09 668.34 405.34 C 658.70 410.41 647.83 416.27 636.93 417.68 C 632.81 418.39 629.12 416.74 625.10 416.98 Z M 292.27 374.77 C 289.68 374.35 286.78 372.74 284.21 373.00 C 281.81 376.17 280.81 381.09 280.58 385.01 C 280.54 386.81 282.10 387.02 283.44 387.53 C 287.76 388.79 292.53 388.73 296.92 387.87 C 300.88 387.00 305.24 385.04 307.51 381.52 C 308.38 379.24 307.87 377.40 305.49 376.51 C 301.18 375.50 296.61 375.90 292.27 374.77 Z M 379.20 541.87 C 384.30 542.28 388.40 540.41 393.22 539.42 C 401.18 538.21 408.92 536.33 417.00 535.97 C 422.43 535.28 428.46 536.28 433.57 534.53 C 436.07 533.36 438.13 531.03 440.18 529.20 C 450.52 519.33 463.41 512.86 477.22 509.42 C 485.10 508.16 492.79 506.26 500.77 505.52 C 515.58 502.35 531.63 497.21 543.61 487.63 C 547.01 485.06 549.79 481.61 553.37 479.33 C 555.25 478.08 559.05 478.27 559.38 481.05 C 559.41 485.11 555.55 489.10 553.13 492.11 C 541.95 504.71 524.96 511.14 508.98 515.03 C 495.55 518.56 482.56 519.44 469.38 524.39 C 458.11 528.47 448.09 535.28 441.19 545.19 C 436.26 552.05 433.63 560.42 435.19 568.87 C 435.98 573.31 438.74 577.59 442.75 579.73 C 443.60 573.07 445.01 566.63 449.22 561.21 C 451.64 557.96 454.21 554.99 458.63 555.10 C 457.87 559.08 455.41 561.97 453.37 565.36 C 450.50 570.23 448.27 575.19 448.89 581.00 C 449.26 583.72 451.74 585.79 454.06 586.95 C 456.37 588.01 459.11 589.19 461.68 588.80 C 462.54 583.80 462.64 577.80 465.52 573.54 C 467.51 570.12 470.80 566.15 474.98 565.66 C 476.08 565.82 476.43 566.59 476.02 567.97 C 474.54 572.49 471.42 576.42 470.27 581.19 C 469.65 583.99 469.42 587.07 470.13 589.88 C 476.88 590.22 483.87 586.17 488.49 581.49 C 493.19 576.60 496.76 571.43 502.60 567.60 C 511.22 561.83 521.84 560.33 532.00 560.01 C 539.44 559.80 546.57 558.11 553.85 556.78 C 570.01 553.26 585.12 546.69 597.32 535.31 C 603.86 529.25 609.38 522.31 613.21 514.22 C 616.90 506.37 618.66 497.90 621.91 489.92 C 622.83 488.12 623.48 485.53 625.98 485.63 C 627.94 485.99 628.65 488.36 629.14 490.01 C 630.47 498.54 627.94 507.10 625.02 515.04 C 618.00 532.91 604.48 548.22 588.11 558.12 C 576.19 564.66 562.68 568.57 549.44 571.42 C 542.77 573.08 535.92 572.84 529.23 574.30 C 529.23 576.43 530.36 577.91 531.21 579.78 C 536.39 590.13 539.37 601.39 539.44 613.00 C 539.45 620.47 539.70 627.65 538.01 635.00 C 535.05 650.67 528.60 666.09 518.66 678.64 C 511.23 687.87 501.98 695.73 491.85 701.84 C 489.07 703.73 485.33 705.18 483.22 707.81 C 487.55 708.17 491.72 707.64 496.03 707.42 C 499.38 707.23 502.45 707.47 505.67 706.67 C 508.21 701.32 509.34 695.80 512.85 690.85 C 519.38 681.11 529.50 675.17 540.37 671.37 C 543.58 670.19 547.07 669.46 550.10 667.86 C 550.38 666.12 549.02 664.17 548.44 662.56 C 538.77 642.48 541.02 617.84 549.89 597.89 C 556.88 581.76 570.53 568.86 587.25 563.29 C 593.22 561.61 598.73 559.83 605.03 560.34 C 618.08 561.37 630.75 566.99 640.93 575.11 C 645.26 578.64 649.57 583.57 651.05 589.06 C 651.54 590.96 649.59 593.33 647.66 592.31 C 643.21 590.26 639.77 586.07 635.74 583.26 C 627.79 577.21 617.27 571.24 607.00 571.68 C 598.42 571.51 589.78 574.05 582.43 578.43 C 569.50 586.15 560.24 599.92 556.28 614.29 C 553.40 623.04 553.17 632.72 554.47 641.78 C 556.56 652.73 562.29 663.89 571.29 670.72 C 578.19 675.83 586.55 676.90 593.42 681.54 C 595.63 682.93 595.99 685.48 594.69 687.65 C 591.12 688.68 587.53 686.88 584.14 685.85 C 570.96 681.04 556.44 678.29 542.74 682.71 C 529.10 687.02 517.60 698.31 516.14 713.01 C 515.78 717.66 519.88 721.91 524.64 720.73 C 525.87 714.43 526.24 708.62 530.31 703.32 C 531.66 701.24 535.18 696.97 537.96 698.08 L 538.41 699.01 C 537.55 703.86 534.02 708.12 533.04 713.04 C 532.53 715.83 532.55 718.84 533.44 721.55 C 537.45 722.59 542.70 722.93 546.68 721.77 C 547.95 716.07 547.43 711.01 550.97 705.98 C 553.00 703.55 555.19 700.73 558.72 702.24 C 558.29 706.26 555.38 709.91 554.73 713.96 C 554.31 716.91 554.56 719.87 555.27 722.75 C 564.43 723.65 573.80 722.94 583.00 723.11 C 592.46 722.95 601.68 723.62 610.97 722.36 C 617.39 721.96 624.51 720.69 629.82 716.80 C 646.33 704.46 659.89 688.26 668.45 669.46 C 673.39 658.69 676.35 646.91 678.33 635.26 C 679.91 628.26 680.23 621.21 680.47 614.06 C 681.39 606.74 681.13 599.41 681.01 591.97 C 680.06 582.98 680.43 574.10 678.75 565.14 C 677.36 557.67 677.11 550.15 675.24 542.78 C 670.12 516.85 660.26 491.68 647.30 468.69 C 639.66 455.01 630.16 442.01 618.24 431.75 C 615.89 429.76 613.47 427.62 610.72 426.20 C 609.14 425.32 608.27 426.16 607.04 427.09 C 603.60 429.95 600.50 433.19 596.98 435.96 C 579.49 450.10 558.18 460.04 536.00 463.88 C 530.07 464.51 524.20 465.44 518.30 466.31 C 512.71 467.00 507.03 466.99 501.43 467.57 C 497.91 468.13 496.17 470.50 493.91 472.93 C 489.23 478.34 482.20 481.96 475.01 482.19 C 467.28 482.74 459.29 479.70 454.38 473.60 C 451.84 470.44 450.48 466.94 448.52 463.49 C 447.06 460.77 444.00 459.79 441.34 458.67 C 433.35 455.67 425.17 451.84 418.36 446.65 C 414.97 444.11 412.28 440.63 408.80 438.25 C 407.49 437.69 406.94 439.53 406.36 440.34 C 395.51 460.69 387.90 482.52 383.06 505.04 C 381.69 512.33 380.07 519.51 379.58 526.93 C 379.25 531.29 376.84 537.92 379.20 541.87 Z M 471.25 440.29 C 463.30 442.88 458.61 451.63 460.31 459.73 C 461.61 467.35 470.05 472.78 477.52 470.57 C 483.59 469.26 488.96 464.19 490.03 458.00 C 491.01 452.51 489.72 446.39 485.41 442.61 C 481.72 439.32 475.79 439.02 471.25 440.29 Z M 240.58 464.43 C 247.00 468.85 252.82 474.25 259.20 478.79 C 261.58 480.33 263.26 482.43 266.37 481.42 C 267.82 480.10 266.19 477.89 265.24 476.78 C 259.92 471.36 253.96 466.44 247.38 462.63 C 245.88 461.64 243.83 460.55 243.21 458.76 C 242.56 455.37 244.91 450.69 249.01 451.73 C 258.89 454.15 264.68 464.81 272.59 469.43 C 275.20 470.87 277.83 468.06 276.50 465.50 C 273.66 460.29 267.79 456.68 263.51 452.50 C 259.80 449.26 256.59 444.65 251.58 443.51 C 246.17 442.56 240.19 444.75 235.74 447.76 C 232.46 450.18 229.04 452.93 228.27 457.18 C 227.56 462.07 226.96 467.09 226.76 472.03 C 226.54 474.85 229.04 477.28 230.86 479.14 C 236.52 484.39 242.80 489.76 249.74 493.21 C 251.57 494.13 253.50 493.87 255.43 493.48 C 255.83 492.91 255.75 492.35 255.20 491.78 C 249.22 484.93 238.31 480.26 233.70 472.33 C 231.42 467.44 235.61 463.15 240.58 464.43 Z M 677.04 448.95 L 677.14 449.83 C 681.44 452.35 686.34 453.80 690.68 456.32 C 697.43 460.21 704.12 464.87 708.81 471.18 C 717.61 482.18 724.20 495.24 733.97 505.03 C 740.15 511.23 747.11 516.43 755.26 519.74 C 762.37 522.27 771.12 525.32 778.67 523.62 L 778.44 522.42 C 772.60 519.95 766.73 518.34 761.53 514.47 C 748.62 505.57 739.68 489.93 730.67 477.34 C 725.64 470.44 719.98 463.01 713.03 457.96 C 702.61 450.58 689.69 447.61 677.04 448.95 Z M 281.29 486.80 C 284.45 490.23 288.64 492.83 292.29 495.73 C 312.05 511.09 332.28 526.39 351.05 542.93 C 366.12 556.55 381.99 569.36 397.32 582.71 C 408.12 591.90 416.91 601.48 429.58 608.40 C 430.82 609.05 433.73 609.52 432.83 607.15 C 429.18 600.53 422.42 595.08 416.61 590.37 C 408.91 584.44 401.75 577.90 394.22 571.77 C 375.37 556.10 356.33 541.27 337.89 525.13 C 334.70 522.28 331.36 519.63 327.90 517.11 C 313.53 506.54 299.68 495.11 284.97 485.02 C 282.57 483.39 281.89 484.36 281.29 486.80 Z M 423.92 617.80 C 424.49 616.85 425.03 615.77 424.27 614.76 C 421.65 611.23 417.61 608.47 414.08 605.92 C 409.58 602.76 406.05 598.67 401.66 595.32 C 398.25 592.73 394.64 590.43 391.32 587.70 C 368.05 568.69 345.37 548.94 322.36 529.67 C 308.90 518.27 293.06 508.75 280.41 496.62 C 279.02 495.44 277.67 493.80 275.98 493.10 C 274.62 493.23 273.27 495.63 273.28 496.90 C 273.83 499.05 276.13 500.86 277.76 502.26 C 284.54 507.49 291.45 512.59 298.35 517.68 C 337.65 547.00 373.45 580.22 412.66 610.33 C 416.16 612.91 419.76 616.42 423.92 617.80 Z M 731.98 542.01 C 732.32 540.71 730.53 540.00 729.71 539.27 C 726.50 537.12 723.04 535.32 719.80 533.20 C 712.89 528.80 706.85 522.68 701.55 516.47 C 697.38 511.61 695.38 505.49 691.35 500.67 C 690.77 499.95 688.88 497.84 688.76 500.04 C 690.18 506.37 693.12 514.03 696.32 519.69 C 702.07 528.51 710.72 535.55 720.46 539.55 C 723.91 540.99 728.20 542.60 731.98 542.01 Z M 392.33 554.17 C 393.11 556.00 394.74 557.49 396.00 559.00 C 409.14 573.36 423.60 585.95 437.04 599.97 C 439.15 602.06 441.10 604.22 444.13 604.90 C 450.05 606.32 455.88 606.60 461.47 609.52 C 467.67 612.66 472.09 618.64 473.60 625.40 C 474.70 630.05 473.68 635.13 474.36 639.66 C 474.93 640.81 476.23 642.67 477.70 641.78 C 480.62 639.51 482.28 636.11 486.23 635.42 C 488.72 635.43 491.31 636.45 493.53 637.51 C 494.02 639.63 493.43 641.60 492.49 643.51 C 489.14 650.04 484.63 655.38 479.88 660.90 C 476.13 665.44 472.03 669.70 467.81 673.81 C 465.31 676.07 462.44 678.61 459.19 679.69 C 457.45 677.76 455.95 675.74 456.05 673.00 C 456.27 669.54 458.09 665.71 457.84 662.15 C 457.37 659.84 455.37 657.41 452.90 657.21 C 447.46 656.76 442.43 657.96 437.16 655.87 C 432.37 654.02 427.67 650.50 424.76 646.24 C 420.76 640.08 422.65 632.96 420.44 626.53 C 419.34 624.06 416.21 622.42 414.04 620.96 C 406.94 616.76 401.25 611.14 394.53 606.47 C 387.48 601.59 380.92 596.06 373.97 591.04 C 369.49 587.80 365.40 582.02 360.16 580.23 C 358.03 584.89 358.59 590.97 358.66 596.00 C 359.65 609.20 365.27 621.34 370.96 633.04 C 375.92 644.31 381.71 655.17 388.70 665.32 C 394.95 674.03 403.61 681.21 410.84 689.15 C 413.98 692.61 417.62 695.46 422.15 696.85 C 428.34 698.71 434.65 700.68 441.06 701.57 C 448.64 702.06 456.71 702.24 464.06 700.08 C 482.49 695.88 498.95 684.06 509.22 668.24 C 515.08 659.37 517.97 649.45 520.18 639.15 C 521.67 631.23 521.68 622.97 520.97 614.97 C 519.49 604.60 514.97 593.98 507.41 586.59 C 506.38 585.57 505.33 584.62 504.02 583.97 C 500.23 586.71 497.75 591.11 494.14 594.16 C 484.81 602.51 471.39 604.98 459.31 602.66 C 449.91 600.83 441.18 595.15 433.98 589.03 C 426.95 583.02 423.61 574.12 423.57 565.00 C 423.36 559.49 424.93 554.49 425.58 549.11 C 418.18 548.34 410.29 549.51 403.04 551.02 C 399.35 551.82 395.80 552.64 392.33 554.17 Z M 364.63 663.59 C 361.23 666.65 356.44 665.61 352.23 665.47 C 344.05 663.62 335.87 661.56 327.75 659.44 C 319.71 657.84 312.33 655.46 304.00 655.70 C 298.14 655.45 293.08 657.50 287.87 659.89 C 283.65 661.91 279.41 663.67 276.14 667.14 C 271.49 672.08 268.61 679.21 269.75 686.03 C 270.04 687.89 270.95 689.41 272.11 690.85 C 273.24 690.88 273.68 689.02 274.20 688.22 C 276.35 683.36 278.61 678.26 282.90 674.87 C 284.49 673.64 286.98 672.37 289.01 672.99 C 289.48 675.16 287.66 677.81 286.76 679.75 C 283.75 685.31 279.83 689.77 281.45 696.58 C 284.37 699.21 288.54 701.48 292.58 700.62 C 294.82 694.20 296.08 688.14 301.73 683.71 C 303.49 681.97 305.43 682.32 307.70 682.34 C 307.80 685.08 305.98 687.40 304.77 689.77 C 302.49 693.44 300.63 698.42 301.21 702.76 C 307.99 704.87 315.97 704.06 323.03 704.41 C 346.84 706.70 371.90 708.48 395.77 706.50 C 400.98 705.82 406.64 705.45 411.59 703.63 L 412.03 702.96 C 408.15 697.82 401.57 694.41 396.46 690.55 C 388.46 685.03 382.60 677.83 376.90 670.08 C 365.77 655.13 357.06 638.31 351.47 620.53 C 349.48 614.56 347.89 608.30 347.29 602.02 C 347.15 596.03 346.75 589.96 347.22 583.98 C 347.54 579.86 348.87 576.26 349.59 572.21 C 346.69 569.16 343.00 566.71 339.31 564.71 C 337.33 563.30 336.03 565.55 334.78 566.80 C 330.49 572.13 329.20 579.59 328.10 586.13 C 325.66 597.62 326.91 609.67 331.58 620.43 C 335.46 630.00 341.19 639.16 348.75 646.26 C 353.08 650.64 357.94 654.36 362.38 658.63 C 363.80 660.08 364.95 661.42 364.63 663.59 Z M 810.66 614.71 C 808.47 602.42 798.43 592.29 786.27 589.64 C 782.09 588.74 777.49 588.47 773.28 589.30 C 773.20 591.18 773.67 592.89 774.34 594.63 C 776.20 599.55 777.75 604.58 779.46 609.55 C 780.16 611.59 781.10 612.93 782.98 614.04 C 786.39 616.04 790.04 618.61 793.95 619.39 C 799.65 619.45 805.54 617.05 810.66 614.71 Z M 739.15 617.86 C 743.99 622.09 749.76 625.57 755.50 628.44 C 757.11 629.29 757.91 627.94 759.04 627.05 C 761.54 624.65 764.44 622.35 766.47 619.53 C 767.41 617.07 766.53 613.68 765.79 611.22 C 764.36 606.89 763.30 602.00 760.92 598.09 C 759.82 596.52 759.03 596.44 757.39 597.34 C 749.48 601.80 742.52 609.42 739.15 617.86 Z M 813.80 629.22 C 808.53 629.11 803.19 630.95 797.90 631.84 C 795.38 632.57 792.21 632.27 791.51 635.43 C 790.41 640.85 789.17 646.49 789.02 652.02 C 788.69 656.64 791.58 661.20 795.45 663.52 C 798.36 664.68 801.29 663.45 803.62 661.65 C 807.47 658.70 809.52 653.65 811.26 649.27 C 813.51 643.08 815.07 635.76 813.80 629.22 Z M 730.70 644.79 C 729.99 648.43 728.21 652.11 728.08 655.81 C 732.03 659.97 737.75 663.02 742.14 666.86 C 743.00 667.38 744.49 669.24 745.55 668.50 C 749.44 661.69 752.39 653.92 752.86 646.04 C 752.95 643.47 750.17 641.94 748.31 640.70 C 743.69 637.93 739.03 634.93 734.04 632.88 L 733.25 633.15 C 731.64 636.66 731.61 641.03 730.70 644.79 Z M 464.22 641.30 C 464.15 644.81 466.87 648.39 469.37 650.64 C 471.01 651.88 472.95 653.87 474.88 651.89 C 477.45 650.01 474.27 648.40 472.99 647.04 C 470.37 645.12 467.49 641.87 464.22 641.30 Z M 467.87 657.83 C 467.07 653.53 462.23 649.14 458.01 648.24 C 457.13 652.01 460.27 654.96 462.97 657.04 C 464.70 658.13 466.03 659.96 467.87 657.83 Z M 706.43 680.18 C 707.18 684.75 708.84 689.21 710.49 693.52 C 711.74 696.37 713.02 699.55 715.14 701.85 C 721.80 699.36 727.95 694.98 732.98 689.99 C 735.10 687.65 737.49 685.12 738.73 682.19 C 735.23 678.19 731.22 675.23 727.26 671.74 C 725.65 670.38 723.91 668.73 721.94 667.93 C 720.20 667.71 718.61 670.38 717.42 671.43 C 714.27 675.16 710.15 677.20 706.43 680.18 Z M 698.76 706.79 C 698.95 702.72 697.35 699.46 696.42 695.61 C 695.70 692.91 695.16 689.75 693.66 687.38 C 692.63 685.68 689.75 685.90 688.02 685.67 C 684.21 685.59 680.00 685.26 676.29 686.23 C 674.52 688.21 673.61 691.05 672.39 693.40 C 670.57 697.46 667.83 701.03 666.03 705.07 C 665.62 707.33 670.47 707.78 671.97 707.99 C 680.72 708.19 690.23 708.93 698.76 706.79 Z"
       id="p1" />
    <path
       d="M 504.16 97.36 L 504.75 97.50 C 507.03 103.35 508.27 109.78 508.99 116.01 C 509.92 123.07 512.40 129.91 513.29 136.97 C 513.72 142.76 511.03 146.93 509.10 152.10 C 507.98 155.10 506.52 157.91 504.82 160.62 C 503.36 159.66 502.88 156.63 501.93 155.08 C 499.97 150.00 496.68 144.48 496.70 139.01 C 496.41 131.47 497.95 124.62 499.33 117.32 C 500.35 110.64 501.65 103.63 504.16 97.36 Z"
       id="p2" />
    <path
       d="M 443.23 110.18 C 446.11 110.23 449.02 112.13 451.45 113.54 C 469.01 124.54 481.43 141.28 490.18 159.81 C 492.33 164.58 494.71 169.57 495.71 174.73 C 494.13 175.79 492.13 175.90 490.26 176.38 C 487.73 176.86 484.99 177.89 482.45 177.57 C 480.82 174.67 479.63 171.60 478.37 168.53 C 471.54 152.37 463.47 136.18 452.77 122.21 C 450.08 118.61 446.44 115.80 443.85 112.16 C 443.39 111.52 443.19 110.86 443.23 110.18 Z"
       id="p3" />
    <path
       d="M 566.74 111.28 C 566.61 111.93 566.38 112.52 566.05 113.05 C 563.23 116.85 559.77 120.16 556.95 123.96 C 547.05 137.90 540.04 152.97 533.82 168.83 C 532.98 170.75 532.17 173.14 530.60 174.58 C 525.85 176.01 520.11 175.66 515.29 174.64 C 515.38 172.84 515.90 171.16 516.49 169.48 C 522.34 151.26 533.22 134.23 547.93 121.91 C 553.42 117.45 559.89 113.23 566.74 111.28 Z"
       id="p4" />
    <path
       d="M 430.07 149.36 C 433.55 150.26 436.92 152.27 440.21 153.78 C 444.22 155.66 448.11 157.63 451.60 160.38 C 458.69 166.04 464.21 173.41 468.94 181.08 C 469.47 182.15 470.30 183.09 468.98 183.99 C 466.29 185.96 463.32 187.85 460.12 188.85 C 454.55 182.73 450.41 175.16 445.51 168.48 C 442.19 163.84 438.56 159.51 434.62 155.39 C 432.90 153.44 430.95 151.84 430.07 149.36 Z"
       id="p5" />
    <path
       d="M 581.88 150.95 L 581.82 151.85 C 578.75 156.86 574.25 161.05 570.94 165.95 C 566.26 172.31 563.03 179.50 558.86 186.13 C 555.47 185.98 551.87 183.76 549.07 181.91 C 547.87 180.79 545.23 179.65 546.72 177.69 C 553.61 166.21 564.92 158.64 576.53 152.53 C 578.08 151.80 580.13 150.48 581.88 150.95 Z"
       id="p6" />
    <path
       d="M 431.51 181.49 C 431.49 181.51 431.49 181.51 431.51 181.49 Z"
       id="p7" />
    <path
       d="M 231.98 181.91 C 237.92 183.02 243.40 187.26 247.18 191.84 C 255.05 201.23 257.46 214.68 253.17 226.17 C 249.50 235.96 238.52 242.45 236.54 252.50 C 235.82 254.78 236.08 257.89 234.74 259.85 C 232.86 260.63 229.98 259.93 228.76 258.25 C 223.44 250.53 222.72 239.84 226.23 231.26 C 228.77 224.04 233.34 219.00 233.98 211.03 C 234.61 200.89 229.13 193.81 228.09 184.11 C 227.88 182.27 230.61 181.61 231.98 181.91 Z"
       id="p8" />
    <path
       d="M 633.74 183.20 C 636.07 185.71 636.76 190.16 637.41 193.45 C 639.04 208.64 639.70 223.73 638.91 239.00 C 638.04 246.40 638.08 253.69 635.96 260.91 C 634.50 269.41 631.85 277.57 628.54 285.52 C 626.61 290.06 628.04 293.89 629.94 298.08 C 633.84 306.81 636.01 316.04 637.43 325.46 C 638.16 332.57 637.98 339.82 637.59 346.94 C 635.27 368.79 625.37 391.06 608.69 405.71 C 592.89 419.67 572.87 428.37 552.55 433.38 C 544.39 435.06 536.26 436.72 528.02 438.04 C 518.78 440.06 509.40 440.66 499.96 440.17 C 496.62 440.06 494.41 436.97 492.01 434.99 C 485.77 429.09 476.47 427.31 468.27 429.31 C 463.96 430.39 461.03 433.99 457.00 435.33 C 453.79 435.55 450.30 433.76 447.29 432.71 C 430.66 426.51 414.72 419.62 401.27 407.73 C 399.56 406.00 397.42 404.33 396.26 402.18 C 402.59 396.14 410.98 392.04 418.27 387.26 C 420.86 385.51 424.29 383.75 424.62 380.26 C 422.42 378.47 419.06 379.42 416.90 380.88 C 408.21 385.42 400.23 392.34 391.11 395.85 C 387.55 392.17 384.60 386.15 383.32 381.22 C 394.54 376.59 409.21 375.88 420.54 369.52 C 421.17 369.19 421.55 368.76 421.68 368.22 C 420.52 367.41 419.56 366.59 418.05 366.67 C 407.10 366.85 395.46 370.30 385.02 371.96 C 382.35 372.11 379.53 372.82 378.18 369.85 C 376.13 365.46 376.15 359.87 375.47 355.11 C 383.78 354.27 391.74 355.60 400.00 356.00 C 407.45 356.41 414.39 357.75 421.90 356.77 C 422.65 355.48 422.73 353.53 421.11 352.88 C 413.12 349.58 405.50 349.21 397.12 347.77 C 390.92 346.82 384.73 346.95 378.61 345.41 C 376.95 344.88 374.34 345.18 374.19 342.86 C 373.23 335.67 373.56 328.17 374.20 320.96 C 374.52 316.13 375.99 311.71 376.92 307.00 C 378.77 298.46 382.45 291.12 386.45 283.45 C 388.56 279.11 391.16 275.01 390.28 269.96 C 388.47 259.62 386.12 249.54 385.78 239.00 C 385.47 225.97 385.37 212.07 388.22 199.31 C 389.05 195.27 389.19 190.01 391.48 186.51 C 393.67 183.79 396.27 185.09 398.98 186.02 C 412.20 191.61 424.62 199.22 435.78 208.22 C 437.87 209.97 440.26 211.99 441.51 214.44 C 442.57 219.00 440.82 224.24 442.11 228.89 C 444.11 235.64 449.20 240.51 455.32 243.68 C 464.58 248.49 475.42 250.71 485.76 251.52 C 496.49 253.00 507.23 253.48 518.00 252.04 C 527.32 251.12 536.35 249.62 545.09 246.09 C 549.08 244.54 553.34 243.82 557.32 242.30 C 559.78 240.60 561.32 237.46 563.16 235.14 C 579.55 214.18 599.39 196.60 624.06 186.05 C 627.01 184.95 630.56 182.97 633.74 183.20 Z M 423.39 246.37 C 426.82 243.31 431.51 240.90 434.24 237.23 C 435.50 235.77 434.31 233.85 433.58 232.44 C 430.22 226.58 424.01 222.44 419.00 218.00 C 414.79 214.29 410.78 210.83 405.53 208.64 C 403.91 208.23 402.00 207.95 400.37 208.38 C 398.51 212.08 398.08 215.93 397.79 220.00 C 397.36 229.30 397.90 238.50 398.50 247.76 C 398.95 252.12 399.64 256.67 401.12 260.81 C 401.53 261.99 402.28 263.03 403.31 263.76 C 405.51 264.52 407.00 262.79 408.47 261.46 C 413.35 256.43 418.10 251.00 423.39 246.37 Z M 623.43 242.06 C 624.47 233.11 624.41 223.91 623.07 214.99 C 622.74 212.87 622.40 209.77 620.63 208.33 C 618.37 207.65 615.81 208.69 613.88 209.85 C 609.17 212.60 604.88 216.25 600.58 219.60 C 593.22 225.33 585.74 231.59 579.80 238.81 C 577.82 241.41 575.84 244.06 577.64 247.39 C 580.96 253.10 587.92 256.90 592.93 261.08 C 598.21 265.11 602.62 270.13 607.84 274.18 C 609.76 275.63 612.99 277.06 614.90 274.86 C 618.50 271.13 620.21 265.31 621.38 260.39 C 622.96 254.56 623.00 248.12 623.43 242.06 Z M 423.45 272.56 C 416.74 273.94 410.46 276.69 405.55 281.56 C 397.22 289.58 393.38 301.60 395.14 313.00 C 397.10 325.45 404.32 337.03 416.58 341.41 C 421.86 343.49 427.30 343.11 432.68 341.67 C 447.22 338.18 459.02 325.11 460.03 310.03 C 461.44 294.37 450.83 277.90 435.63 273.37 C 431.78 272.02 427.45 271.97 423.45 272.56 Z M 535.32 275.41 C 521.43 278.65 510.25 290.65 508.88 304.97 C 507.97 313.47 510.24 321.82 515.27 328.71 C 520.46 336.08 528.47 340.82 537.22 342.64 C 544.55 343.66 552.11 342.30 558.49 338.51 C 569.44 332.33 576.02 319.47 575.11 306.99 C 574.60 296.60 569.48 286.19 560.99 280.02 C 553.76 274.27 544.07 273.65 535.32 275.41 Z M 446.70 363.26 C 444.22 362.70 441.80 363.16 440.73 365.69 C 438.28 372.52 442.47 379.23 448.14 382.85 C 452.91 386.09 459.12 386.99 464.66 385.58 C 468.91 384.43 472.04 381.09 476.00 379.60 C 480.41 381.48 483.78 385.14 488.67 386.34 C 494.85 387.89 502.38 388.12 508.20 385.19 C 513.57 382.70 516.93 376.11 515.63 370.34 C 515.11 368.28 513.39 367.58 511.56 368.57 C 508.54 371.47 506.42 374.60 502.41 376.40 C 498.07 378.36 493.23 377.14 489.43 374.57 C 485.56 372.02 481.68 367.91 481.62 363.00 C 481.51 360.42 483.30 358.69 484.86 356.88 C 489.34 351.91 495.23 347.15 497.75 340.78 C 498.27 339.47 497.06 338.57 496.27 337.72 C 492.39 334.01 486.16 332.99 481.00 332.85 C 473.72 332.66 466.77 332.85 460.08 336.08 C 457.16 337.69 454.70 340.33 455.85 343.93 C 458.60 350.48 467.16 354.20 470.53 360.45 C 471.38 361.99 471.28 364.08 470.69 365.70 C 468.49 371.13 463.64 375.45 457.85 376.60 C 454.55 376.57 451.01 374.36 449.70 371.29 C 448.49 368.71 447.76 365.91 446.70 363.26 Z M 507.20 361.72 C 516.05 362.53 525.20 361.53 534.02 360.66 C 543.50 359.66 553.02 359.11 562.52 358.37 C 579.26 356.10 596.13 354.18 612.68 350.75 C 618.79 349.35 624.23 349.26 629.80 346.75 C 630.25 344.79 629.96 342.76 628.85 341.07 C 621.84 340.59 614.12 343.24 607.04 343.88 C 600.65 344.50 594.39 345.92 588.03 346.72 C 578.63 347.54 569.49 349.76 560.07 350.41 C 547.79 352.44 535.42 353.44 523.11 355.22 C 519.26 355.78 515.23 355.71 511.44 356.60 C 509.02 357.28 507.03 359.01 507.20 361.72 Z M 619.76 378.29 C 617.33 377.20 614.85 376.93 612.25 376.52 C 604.23 375.28 596.13 374.45 588.06 373.64 C 581.43 372.75 574.90 371.28 568.24 370.53 C 559.50 368.96 550.91 367.54 541.98 367.65 C 540.37 367.69 538.79 367.75 537.24 368.25 C 536.97 370.39 536.76 372.87 539.15 373.86 C 545.57 376.28 551.81 375.96 558.91 377.34 C 564.28 378.02 569.61 378.98 574.97 379.68 C 582.71 380.19 590.30 381.83 598.03 382.38 C 604.22 382.92 611.52 384.96 617.70 383.70 C 619.81 382.69 620.22 380.40 619.76 378.29 Z M 548.36 392.64 C 559.77 397.62 570.95 402.99 582.60 407.42 C 584.91 408.27 587.52 409.48 590.00 409.44 C 591.44 409.45 592.77 408.33 592.86 406.88 C 592.96 403.00 586.64 400.70 583.77 399.24 C 571.05 393.39 557.99 388.21 545.00 383.00 C 541.00 381.56 537.78 379.47 533.35 380.35 C 532.92 382.36 532.60 384.18 534.45 385.58 C 538.39 388.75 543.75 390.64 548.36 392.64 Z"
       id="p9" />
    <path
       d="M 494.46 186.60 C 498.23 186.49 501.99 186.40 505.75 186.19 C 504.22 188.93 501.79 191.41 499.19 193.17 C 496.76 194.88 493.21 193.99 491.59 191.58 C 490.91 189.81 493.25 187.64 494.46 186.60 Z"
       id="p10" />
    <path
       d="M 524.35 187.34 C 528.39 187.01 532.48 187.67 536.54 187.58 C 537.42 188.56 540.04 190.24 539.62 191.69 C 538.37 193.51 536.32 195.94 534.00 196.20 C 531.24 195.89 528.86 192.87 526.96 191.03 C 525.92 189.81 524.50 189.02 524.35 187.34 Z"
       id="p11" />
    <path
       d="M 516.02 189.98 C 519.87 193.73 523.71 197.54 527.38 201.46 C 528.07 202.83 526.49 203.79 525.75 204.73 C 522.02 208.28 518.09 211.55 514.70 215.45 C 510.92 212.42 507.51 208.41 503.97 205.04 C 502.42 203.73 501.34 201.50 502.70 199.68 C 505.67 196.34 509.38 193.71 512.48 190.48 C 513.51 189.38 514.77 188.85 516.02 189.98 Z"
       id="p12" />
    <path
       d="M 481.53 190.58 C 484.55 193.44 487.35 196.52 490.45 199.30 C 488.35 203.73 482.97 207.12 479.53 210.53 C 478.26 211.58 477.42 213.14 475.54 212.37 C 472.82 210.17 470.50 207.44 467.95 205.05 C 466.97 203.93 465.33 202.85 465.26 201.28 C 468.79 198.11 472.23 194.98 475.48 191.50 C 476.73 189.85 479.71 190.63 481.53 190.58 Z"
       id="p13" />
    <path
       d="M 552.10 197.89 C 554.52 199.96 556.99 202.84 557.89 205.94 C 556.00 209.18 552.69 213.38 549.16 214.83 C 545.55 211.21 541.89 207.27 539.08 202.99 C 540.63 200.45 543.14 198.25 545.56 196.55 C 547.85 194.96 550.19 196.49 552.10 197.89 Z"
       id="p14" />
    <path
       d="M 460.74 206.53 C 463.71 208.69 466.12 211.76 468.35 214.65 C 469.03 215.84 470.55 216.89 469.22 218.21 C 465.35 222.35 461.09 227.14 456.11 229.89 C 453.97 227.43 452.67 224.36 453.12 221.05 C 453.81 216.51 455.72 212.10 458.41 208.38 C 458.93 207.89 459.91 206.03 460.74 206.53 Z"
       id="p15" />
    <path
       d="M 495.01 207.20 C 498.51 209.13 501.53 212.87 503.99 216.01 C 504.86 217.58 507.06 219.37 504.93 220.92 C 500.87 224.45 496.71 228.29 492.00 230.94 C 487.75 228.55 484.30 224.44 481.57 220.46 C 480.54 218.72 482.42 217.56 483.47 216.47 C 487.11 213.31 490.75 209.47 495.01 207.20 Z"
       id="p16" />
    <path
       d="M 400.37 208.38 C 402.00 207.95 403.91 208.23 405.53 208.64 C 410.78 210.83 414.79 214.29 419.00 218.00 C 424.01 222.44 430.22 226.58 433.58 232.44 C 434.31 233.85 435.50 235.77 434.24 237.23 C 431.51 240.90 426.82 243.31 423.39 246.37 C 418.10 251.00 413.35 256.43 408.47 261.46 C 407.00 262.79 405.51 264.52 403.31 263.76 C 402.28 263.03 401.53 261.99 401.12 260.81 C 399.64 256.67 398.95 252.12 398.50 247.76 C 397.90 238.50 397.36 229.30 397.79 220.00 C 398.08 215.93 398.51 212.08 400.37 208.38 Z"
       id="p17" />
    <path
       d="M 534.47 209.51 C 537.82 212.84 540.61 216.67 543.96 220.01 C 545.06 221.04 544.32 221.64 543.51 222.48 C 539.67 226.15 536.40 231.55 531.99 234.48 C 528.14 232.34 525.21 227.95 522.34 224.63 C 521.29 222.93 518.68 220.64 520.71 218.71 C 523.90 215.03 527.40 211.14 531.62 208.64 C 532.94 207.81 533.52 208.70 534.47 209.51 Z"
       id="p18" />
    <path
       d="M 620.63 208.33 C 622.40 209.77 622.74 212.87 623.07 214.99 C 624.41 223.91 624.47 233.11 623.43 242.06 C 623.00 248.12 622.96 254.56 621.38 260.39 C 620.21 265.31 618.50 271.13 614.90 274.86 C 612.99 277.06 609.76 275.63 607.84 274.18 C 602.62 270.13 598.21 265.11 592.93 261.08 C 587.92 256.90 580.96 253.10 577.64 247.39 C 575.84 244.06 577.82 241.41 579.80 238.81 C 585.74 231.59 593.22 225.33 600.58 219.60 C 604.88 216.25 609.17 212.60 613.88 209.85 C 615.81 208.69 618.37 207.65 620.63 208.33 Z"
       id="p19" />
    <path
       d="M 281.12 214.04 C 285.01 214.04 288.56 217.26 290.85 220.14 C 295.83 226.69 297.35 235.76 295.65 243.71 C 293.43 251.38 286.64 257.82 282.87 264.89 C 281.32 267.66 280.29 270.87 278.42 273.44 C 276.47 274.89 274.40 273.43 273.22 271.76 C 269.73 266.30 268.66 259.46 270.21 253.17 C 272.35 244.91 277.09 238.42 278.53 229.78 C 279.08 225.63 278.33 221.15 279.07 217.06 C 279.32 216.02 279.76 214.03 281.12 214.04 Z"
       id="p20" />
    <path
       d="M 562.59 214.40 C 562.54 215.74 562.43 216.48 561.53 217.53 C 560.03 219.35 559.32 222.08 556.96 222.74 C 555.04 222.63 555.06 219.40 556.50 218.50 C 558.36 216.88 559.81 214.09 562.59 214.40 Z"
       id="p21" />
    <path
       d="M 473.45 224.45 C 475.73 223.49 477.26 226.02 478.56 227.45 C 480.90 230.63 483.68 234.10 484.80 237.92 C 481.03 239.03 476.57 238.10 472.84 237.17 C 469.97 236.30 466.66 235.60 464.19 233.85 C 466.08 230.50 470.10 226.36 473.45 224.45 Z"
       id="p22" />
    <path
       d="M 513.58 226.38 C 516.34 228.57 518.47 231.54 521.01 233.98 C 522.59 235.86 524.74 236.74 524.65 239.46 C 516.09 239.82 507.88 241.11 499.31 239.52 C 498.97 238.47 499.15 237.58 499.83 236.85 C 502.50 233.34 506.33 230.66 509.46 227.51 C 510.40 226.41 512.24 225.78 513.58 226.38 Z"
       id="p23" />
    <path
       d="M 549.81 229.10 C 549.31 232.89 545.09 235.84 541.36 235.67 C 541.33 233.84 542.83 233.16 544.02 232.05 C 545.66 230.86 547.69 229.03 549.81 229.10 Z"
       id="p24" />
    <path
       d="M 423.45 272.56 C 427.45 271.97 431.78 272.02 435.63 273.37 C 450.83 277.90 461.44 294.37 460.03 310.03 C 459.02 325.11 447.22 338.18 432.68 341.67 C 427.30 343.11 421.86 343.49 416.58 341.41 C 404.32 337.03 397.10 325.45 395.14 313.00 C 393.38 301.60 397.22 289.58 405.55 281.56 C 410.46 276.69 416.74 273.94 423.45 272.56 Z M 422.44 284.56 C 416.45 286.18 411.19 289.76 408.49 295.48 C 406.01 301.02 404.67 307.57 406.38 313.52 C 408.78 323.83 419.85 332.41 430.57 330.48 C 440.01 328.14 448.79 319.12 448.81 309.03 C 449.42 297.90 441.74 287.02 430.79 284.43 C 428.06 284.11 425.15 283.99 422.44 284.56 Z"
       id="p25" />
    <path
       d="M 535.32 275.41 C 544.07 273.65 553.76 274.27 560.99 280.02 C 569.48 286.19 574.60 296.60 575.11 306.99 C 576.02 319.47 569.44 332.33 558.49 338.51 C 552.11 342.30 544.55 343.66 537.22 342.64 C 528.47 340.82 520.46 336.08 515.27 328.71 C 510.24 321.82 507.97 313.47 508.88 304.97 C 510.25 290.65 521.43 278.65 535.32 275.41 Z M 539.26 285.36 C 533.90 286.68 528.33 289.50 524.28 293.27 C 519.68 297.41 518.46 304.01 519.17 309.91 C 519.96 315.45 521.96 320.99 525.97 325.03 C 531.26 330.18 538.44 333.36 545.90 331.86 C 557.09 329.53 565.20 318.21 564.97 306.99 C 565.02 299.56 561.38 291.96 554.77 288.24 C 549.97 285.74 544.67 284.43 539.26 285.36 Z"
       id="p26" />
    <path
       d="M 219.00 280.80 C 226.78 281.13 234.10 283.37 241.77 284.46 C 255.07 287.55 267.97 291.82 280.28 297.74 C 284.61 299.98 287.77 304.00 288.04 308.98 C 288.20 314.25 286.40 319.74 284.82 324.72 C 278.69 347.46 271.51 370.73 265.40 393.52 C 264.08 397.85 260.40 399.05 256.54 400.42 C 247.15 403.05 236.63 402.35 227.05 401.16 C 213.96 400.12 200.91 396.66 189.11 390.89 C 184.39 388.49 178.85 385.70 175.73 381.27 C 173.36 378.35 173.84 373.87 174.46 370.40 C 176.32 362.20 178.32 353.99 180.94 345.99 C 182.87 339.26 184.50 332.41 186.75 325.78 C 189.86 313.67 192.60 301.72 196.93 289.99 C 198.04 286.29 199.93 283.14 203.74 281.80 C 208.57 280.39 214.01 280.55 219.00 280.80 Z M 240.45 292.35 C 233.37 290.80 226.26 289.51 219.03 288.90 C 214.61 288.75 210.49 288.89 207.28 292.34 C 206.64 293.53 207.69 294.70 208.35 295.63 C 210.21 297.92 212.65 299.53 215.34 300.70 C 225.10 304.81 235.18 307.81 245.45 310.34 C 254.20 311.81 262.86 312.67 271.72 311.73 C 273.68 311.36 276.19 311.11 277.58 309.53 C 278.87 305.77 275.23 303.99 272.47 302.59 C 262.24 298.49 251.39 293.98 240.45 292.35 Z"
       id="p27" />
    <path
       d="M 422.44 284.56 C 425.15 283.99 428.06 284.11 430.79 284.43 C 441.74 287.02 449.42 297.90 448.81 309.03 C 448.79 319.12 440.01 328.14 430.57 330.48 C 419.85 332.41 408.78 323.83 406.38 313.52 C 404.67 307.57 406.01 301.02 408.49 295.48 C 411.19 289.76 416.45 286.18 422.44 284.56 Z M 424.44 291.51 C 416.09 293.56 410.81 301.65 411.02 310.02 C 410.90 317.86 418.05 325.24 425.99 324.86 C 435.16 324.16 443.38 315.27 442.86 306.00 C 443.66 296.85 432.76 289.71 424.44 291.51 Z"
       id="p28" />
    <path
       d="M 539.26 285.36 C 544.67 284.43 549.97 285.74 554.77 288.24 C 561.38 291.96 565.02 299.56 564.97 306.99 C 565.20 318.21 557.09 329.53 545.90 331.86 C 538.44 333.36 531.26 330.18 525.97 325.03 C 521.96 320.99 519.96 315.45 519.17 309.91 C 518.46 304.01 519.68 297.41 524.28 293.27 C 528.33 289.50 533.90 286.68 539.26 285.36 Z M 538.40 292.43 C 533.14 294.02 528.60 297.61 526.87 302.96 C 524.69 309.39 526.03 318.01 531.88 322.14 C 537.57 326.11 546.17 326.03 551.63 321.65 C 559.22 315.32 559.72 301.47 551.84 295.16 C 548.16 291.77 543.11 291.16 538.40 292.43 Z"
       id="p29" />
    <path
       d="M 219.03 288.90 C 226.26 289.51 233.37 290.80 240.45 292.35 C 251.39 293.98 262.24 298.49 272.47 302.59 C 275.23 303.99 278.87 305.77 277.58 309.53 C 276.19 311.11 273.68 311.36 271.72 311.73 C 262.86 312.67 254.20 311.81 245.45 310.34 C 235.18 307.81 225.10 304.81 215.34 300.70 C 212.65 299.53 210.21 297.92 208.35 295.63 C 207.69 294.70 206.64 293.53 207.28 292.34 C 210.49 288.89 214.61 288.75 219.03 288.90 Z"
       id="p30" />
    <path
       d="M 424.44 291.51 C 432.76 289.71 443.66 296.85 442.86 306.00 C 443.38 315.27 435.16 324.16 425.99 324.86 C 418.05 325.24 410.90 317.86 411.02 310.02 C 410.81 301.65 416.09 293.56 424.44 291.51 Z"
       id="p31" />
    <path
       d="M 538.40 292.43 C 543.11 291.16 548.16 291.77 551.84 295.16 C 559.72 301.47 559.22 315.32 551.63 321.65 C 546.17 326.03 537.57 326.11 531.88 322.14 C 526.03 318.01 524.69 309.39 526.87 302.96 C 528.60 297.61 533.14 294.02 538.40 292.43 Z"
       id="p32" />
    <path
       d="M 306.00 317.09 C 314.46 318.45 323.27 322.97 326.78 331.21 C 327.86 333.90 329.61 336.81 329.71 339.73 C 324.29 338.89 318.96 336.70 313.54 335.57 C 308.30 334.63 301.97 332.64 298.19 328.71 C 297.89 325.94 298.57 322.91 299.23 320.21 C 300.23 317.32 303.23 316.60 306.00 317.09 Z"
       id="p33" />
    <path
       d="M 481.00 332.85 C 486.16 332.99 492.39 334.01 496.27 337.72 C 497.06 338.57 498.27 339.47 497.75 340.78 C 495.23 347.15 489.34 351.91 484.86 356.88 C 483.30 358.69 481.51 360.42 481.62 363.00 C 481.68 367.91 485.56 372.02 489.43 374.57 C 493.23 377.14 498.07 378.36 502.41 376.40 C 506.42 374.60 508.54 371.47 511.56 368.57 C 513.39 367.58 515.11 368.28 515.63 370.34 C 516.93 376.11 513.57 382.70 508.20 385.19 C 502.38 388.12 494.85 387.89 488.67 386.34 C 483.78 385.14 480.41 381.48 476.00 379.60 C 472.04 381.09 468.91 384.43 464.66 385.58 C 459.12 386.99 452.91 386.09 448.14 382.85 C 442.47 379.23 438.28 372.52 440.73 365.69 C 441.80 363.16 444.22 362.70 446.70 363.26 C 447.76 365.91 448.49 368.71 449.70 371.29 C 451.01 374.36 454.55 376.57 457.85 376.60 C 463.64 375.45 468.49 371.13 470.69 365.70 C 471.28 364.08 471.38 361.99 470.53 360.45 C 467.16 354.20 458.60 350.48 455.85 343.93 C 454.70 340.33 457.16 337.69 460.08 336.08 C 466.77 332.85 473.72 332.66 481.00 332.85 Z"
       id="p34" />
    <path
       d="M 628.85 341.07 C 629.96 342.76 630.25 344.79 629.80 346.75 C 624.23 349.26 618.79 349.35 612.68 350.75 C 596.13 354.18 579.26 356.10 562.52 358.37 C 553.02 359.11 543.50 359.66 534.02 360.66 C 525.20 361.53 516.05 362.53 507.20 361.72 C 507.03 359.01 509.02 357.28 511.44 356.60 C 515.23 355.71 519.26 355.78 523.11 355.22 C 535.42 353.44 547.79 352.44 560.07 350.41 C 569.49 349.76 578.63 347.54 588.03 346.72 C 594.39 345.92 600.65 344.50 607.04 343.88 C 614.12 343.24 621.84 340.59 628.85 341.07 Z"
       id="p35" />
    <path
       d="M 297.20 343.42 C 303.02 342.49 309.27 342.95 314.73 345.28 C 323.13 348.35 331.32 354.55 335.28 362.72 C 338.23 368.78 337.63 374.57 339.04 380.97 C 340.19 386.05 341.01 391.38 342.73 396.27 C 346.16 407.08 353.30 416.78 361.55 424.43 C 370.66 432.62 381.01 436.62 391.56 442.25 C 387.47 457.42 380.10 471.78 376.00 487.00 C 374.98 490.23 374.40 493.80 372.85 496.81 C 371.88 498.49 370.04 497.96 368.53 497.48 C 363.89 495.70 359.61 493.00 355.10 490.92 C 334.14 480.61 318.99 460.91 310.46 439.54 C 309.08 435.66 306.89 431.46 307.24 427.31 C 309.74 425.38 314.65 423.17 315.66 420.10 C 314.07 417.14 309.92 416.00 306.95 415.05 C 302.26 413.66 297.95 410.97 294.57 407.44 C 292.52 405.20 291.25 402.30 292.25 399.27 C 298.22 397.54 305.42 396.63 311.14 393.15 C 316.00 389.99 318.18 384.51 318.84 378.95 C 319.16 374.73 317.28 369.75 313.75 367.26 C 308.97 364.45 303.22 365.60 297.96 365.11 C 294.11 364.74 290.35 363.16 288.31 359.71 C 287.19 355.74 288.63 351.07 290.53 347.55 C 291.83 344.97 294.54 343.96 297.20 343.42 Z"
       id="p36" />
    <path
       d="M 759.94 366.20 C 768.71 367.75 777.92 370.48 785.19 375.80 C 793.10 382.17 799.23 392.40 797.93 402.85 C 794.97 401.44 792.89 397.76 790.47 395.52 C 785.14 389.76 778.07 385.94 770.33 384.64 C 763.24 383.16 756.08 385.02 749.07 386.12 C 728.28 390.64 712.45 402.58 693.83 411.83 C 685.36 416.06 676.26 419.20 667.34 422.34 C 657.44 425.80 647.30 425.76 636.97 424.77 C 633.66 424.54 630.60 422.95 627.99 420.99 C 626.81 419.97 625.23 418.65 625.10 416.98 C 629.12 416.74 632.81 418.39 636.93 417.68 C 647.83 416.27 658.70 410.41 668.34 405.34 C 678.39 400.09 686.57 393.15 696.13 387.14 C 710.28 378.39 724.86 371.13 741.05 366.99 C 747.29 365.25 753.58 365.33 759.94 366.20 Z"
       id="p37" />
    <path
       d="M 537.24 368.25 C 538.79 367.75 540.37 367.69 541.98 367.65 C 550.91 367.54 559.50 368.96 568.24 370.53 C 574.90 371.28 581.43 372.75 588.06 373.64 C 596.13 374.45 604.23 375.28 612.25 376.52 C 614.85 376.93 617.33 377.20 619.76 378.29 C 620.22 380.40 619.81 382.69 617.70 383.70 C 611.52 384.96 604.22 382.92 598.03 382.38 C 590.30 381.83 582.71 380.19 574.97 379.68 C 569.61 378.98 564.28 378.02 558.91 377.34 C 551.81 375.96 545.57 376.28 539.15 373.86 C 536.76 372.87 536.97 370.39 537.24 368.25 Z"
       id="p38" />
    <path
       d="M 284.21 373.00 C 286.78 372.74 289.68 374.35 292.27 374.77 C 296.61 375.90 301.18 375.50 305.49 376.51 C 307.87 377.40 308.38 379.24 307.51 381.52 C 305.24 385.04 300.88 387.00 296.92 387.87 C 292.53 388.73 287.76 388.79 283.44 387.53 C 282.10 387.02 280.54 386.81 280.58 385.01 C 280.81 381.09 281.81 376.17 284.21 373.00 Z"
       id="p39" />
    <path
       d="M 533.35 380.35 C 537.78 379.47 541.00 381.56 545.00 383.00 C 557.99 388.21 571.05 393.39 583.77 399.24 C 586.64 400.70 592.96 403.00 592.86 406.88 C 592.77 408.33 591.44 409.45 590.00 409.44 C 587.52 409.48 584.91 408.27 582.60 407.42 C 570.95 402.99 559.77 397.62 548.36 392.64 C 543.75 390.64 538.39 388.75 534.45 385.58 C 532.60 384.18 532.92 382.36 533.35 380.35 Z"
       id="p40" />
    <path
       d="M 610.72 426.20 C 613.47 427.62 615.89 429.76 618.24 431.75 C 630.16 442.01 639.66 455.01 647.30 468.69 C 660.26 491.68 670.12 516.85 675.24 542.78 C 677.11 550.15 677.36 557.67 678.75 565.14 C 680.43 574.10 680.06 582.98 681.01 591.97 C 681.13 599.41 681.39 606.74 680.47 614.06 C 680.23 621.21 679.91 628.26 678.33 635.26 C 676.35 646.91 673.39 658.69 668.45 669.46 C 659.89 688.26 646.33 704.46 629.82 716.80 C 624.51 720.69 617.39 721.96 610.97 722.36 C 601.68 723.62 592.46 722.95 583.00 723.11 C 573.80 722.94 564.43 723.65 555.27 722.75 C 554.56 719.87 554.31 716.91 554.73 713.96 C 555.38 709.91 558.29 706.26 558.72 702.24 C 555.19 700.73 553.00 703.55 550.97 705.98 C 547.43 711.01 547.95 716.07 546.68 721.77 C 542.70 722.93 537.45 722.59 533.44 721.55 C 532.55 718.84 532.53 715.83 533.04 713.04 C 534.02 708.12 537.55 703.86 538.41 699.01 L 537.96 698.08 C 535.18 696.97 531.66 701.24 530.31 703.32 C 526.24 708.62 525.87 714.43 524.64 720.73 C 519.88 721.91 515.78 717.66 516.14 713.01 C 517.60 698.31 529.10 687.02 542.74 682.71 C 556.44 678.29 570.96 681.04 584.14 685.85 C 587.53 686.88 591.12 688.68 594.69 687.65 C 595.99 685.48 595.63 682.93 593.42 681.54 C 586.55 676.90 578.19 675.83 571.29 670.72 C 562.29 663.89 556.56 652.73 554.47 641.78 C 553.17 632.72 553.40 623.04 556.28 614.29 C 560.24 599.92 569.50 586.15 582.43 578.43 C 589.78 574.05 598.42 571.51 607.00 571.68 C 617.27 571.24 627.79 577.21 635.74 583.26 C 639.77 586.07 643.21 590.26 647.66 592.31 C 649.59 593.33 651.54 590.96 651.05 589.06 C 649.57 583.57 645.26 578.64 640.93 575.11 C 630.75 566.99 618.08 561.37 605.03 560.34 C 598.73 559.83 593.22 561.61 587.25 563.29 C 570.53 568.86 556.88 581.76 549.89 597.89 C 541.02 617.84 538.77 642.48 548.44 662.56 C 549.02 664.17 550.38 666.12 550.10 667.86 C 547.07 669.46 543.58 670.19 540.37 671.37 C 529.50 675.17 519.38 681.11 512.85 690.85 C 509.34 695.80 508.21 701.32 505.67 706.67 C 502.45 707.47 499.38 707.23 496.03 707.42 C 491.72 707.64 487.55 708.17 483.22 707.81 C 485.33 705.18 489.07 703.73 491.85 701.84 C 501.98 695.73 511.23 687.87 518.66 678.64 C 528.60 666.09 535.05 650.67 538.01 635.00 C 539.70 627.65 539.45 620.47 539.44 613.00 C 539.37 601.39 536.39 590.13 531.21 579.78 C 530.36 577.91 529.23 576.43 529.23 574.30 C 535.92 572.84 542.77 573.08 549.44 571.42 C 562.68 568.57 576.19 564.66 588.11 558.12 C 604.48 548.22 618.00 532.91 625.02 515.04 C 627.94 507.10 630.47 498.54 629.14 490.01 C 628.65 488.36 627.94 485.99 625.98 485.63 C 623.48 485.53 622.83 488.12 621.91 489.92 C 618.66 497.90 616.90 506.37 613.21 514.22 C 609.38 522.31 603.86 529.25 597.32 535.31 C 585.12 546.69 570.01 553.26 553.85 556.78 C 546.57 558.11 539.44 559.80 532.00 560.01 C 521.84 560.33 511.22 561.83 502.60 567.60 C 496.76 571.43 493.19 576.60 488.49 581.49 C 483.87 586.17 476.88 590.22 470.13 589.88 C 469.42 587.07 469.65 583.99 470.27 581.19 C 471.42 576.42 474.54 572.49 476.02 567.97 C 476.43 566.59 476.08 565.82 474.98 565.66 C 470.80 566.15 467.51 570.12 465.52 573.54 C 462.64 577.80 462.54 583.80 461.68 588.80 C 459.11 589.19 456.37 588.01 454.06 586.95 C 451.74 585.79 449.26 583.72 448.89 581.00 C 448.27 575.19 450.50 570.23 453.37 565.36 C 455.41 561.97 457.87 559.08 458.63 555.10 C 454.21 554.99 451.64 557.96 449.22 561.21 C 445.01 566.63 443.60 573.07 442.75 579.73 C 438.74 577.59 435.98 573.31 435.19 568.87 C 433.63 560.42 436.26 552.05 441.19 545.19 C 448.09 535.28 458.11 528.47 469.38 524.39 C 482.56 519.44 495.55 518.56 508.98 515.03 C 524.96 511.14 541.95 504.71 553.13 492.11 C 555.55 489.10 559.41 485.11 559.38 481.05 C 559.05 478.27 555.25 478.08 553.37 479.33 C 549.79 481.61 547.01 485.06 543.61 487.63 C 531.63 497.21 515.58 502.35 500.77 505.52 C 492.79 506.26 485.10 508.16 477.22 509.42 C 463.41 512.86 450.52 519.33 440.18 529.20 C 438.13 531.03 436.07 533.36 433.57 534.53 C 428.46 536.28 422.43 535.28 417.00 535.97 C 408.92 536.33 401.18 538.21 393.22 539.42 C 388.40 540.41 384.30 542.28 379.20 541.87 C 376.84 537.92 379.25 531.29 379.58 526.93 C 380.07 519.51 381.69 512.33 383.06 505.04 C 387.90 482.52 395.51 460.69 406.36 440.34 C 406.94 439.53 407.49 437.69 408.80 438.25 C 412.28 440.63 414.97 444.11 418.36 446.65 C 425.17 451.84 433.35 455.67 441.34 458.67 C 444.00 459.79 447.06 460.77 448.52 463.49 C 450.48 466.94 451.84 470.44 454.38 473.60 C 459.29 479.70 467.28 482.74 475.01 482.19 C 482.20 481.96 489.23 478.34 493.91 472.93 C 496.17 470.50 497.91 468.13 501.43 467.57 C 507.03 466.99 512.71 467.00 518.30 466.31 C 524.20 465.44 530.07 464.51 536.00 463.88 C 558.18 460.04 579.49 450.10 596.98 435.96 C 600.50 433.19 603.60 429.95 607.04 427.09 C 608.27 426.16 609.14 425.32 610.72 426.20 Z M 644.54 678.71 C 645.46 672.75 643.92 667.71 641.72 662.28 C 633.64 640.98 612.95 625.60 590.19 624.23 C 587.86 624.44 586.35 627.68 587.21 629.69 C 589.78 631.35 593.08 631.99 595.94 633.06 C 613.27 638.85 627.40 652.04 636.00 667.98 C 637.89 671.45 639.32 675.25 641.48 678.55 C 642.43 678.87 643.45 678.92 644.54 678.71 Z"
       id="p41" />
    <path
       d="M 471.25 440.29 C 475.79 439.02 481.72 439.32 485.41 442.61 C 489.72 446.39 491.01 452.51 490.03 458.00 C 488.96 464.19 483.59 469.26 477.52 470.57 C 470.05 472.78 461.61 467.35 460.31 459.73 C 458.61 451.63 463.30 442.88 471.25 440.29 Z M 473.33 447.41 C 467.70 448.60 465.14 455.79 468.80 460.20 C 472.01 463.31 477.56 460.91 479.74 457.73 C 482.87 453.55 478.33 446.67 473.33 447.41 Z"
       id="p42" />
    <path
       d="M 251.58 443.51 C 256.59 444.65 259.80 449.26 263.51 452.50 C 267.79 456.68 273.66 460.29 276.50 465.50 C 277.83 468.06 275.20 470.87 272.59 469.43 C 264.68 464.81 258.89 454.15 249.01 451.73 C 244.91 450.69 242.56 455.37 243.21 458.76 C 243.83 460.55 245.88 461.64 247.38 462.63 C 253.96 466.44 259.92 471.36 265.24 476.78 C 266.19 477.89 267.82 480.10 266.37 481.42 C 263.26 482.43 261.58 480.33 259.20 478.79 C 252.82 474.25 247.00 468.85 240.58 464.43 C 235.61 463.15 231.42 467.44 233.70 472.33 C 238.31 480.26 249.22 484.93 255.20 491.78 C 255.75 492.35 255.83 492.91 255.43 493.48 C 253.50 493.87 251.57 494.13 249.74 493.21 C 242.80 489.76 236.52 484.39 230.86 479.14 C 229.04 477.28 226.54 474.85 226.76 472.03 C 226.96 467.09 227.56 462.07 228.27 457.18 C 229.04 452.93 232.46 450.18 235.74 447.76 C 240.19 444.75 246.17 442.56 251.58 443.51 Z"
       id="p43" />
    <path
       d="M 473.33 447.41 C 478.33 446.67 482.87 453.55 479.74 457.73 C 477.56 460.91 472.01 463.31 468.80 460.20 C 465.14 455.79 467.70 448.60 473.33 447.41 Z"
       id="p44" />
    <path
       d="M 677.04 448.95 C 689.69 447.61 702.61 450.58 713.03 457.96 C 719.98 463.01 725.64 470.44 730.67 477.34 C 739.68 489.93 748.62 505.57 761.53 514.47 C 766.73 518.34 772.60 519.95 778.44 522.42 L 778.67 523.62 C 771.12 525.32 762.37 522.27 755.26 519.74 C 747.11 516.43 740.15 511.23 733.97 505.03 C 724.20 495.24 717.61 482.18 708.81 471.18 C 704.12 464.87 697.43 460.21 690.68 456.32 C 686.34 453.80 681.44 452.35 677.14 449.83 L 677.04 448.95 Z"
       id="p45" />
    <path
       d="M 284.97 485.02 C 299.68 495.11 313.53 506.54 327.90 517.11 C 331.36 519.63 334.70 522.28 337.89 525.13 C 356.33 541.27 375.37 556.10 394.22 571.77 C 401.75 577.90 408.91 584.44 416.61 590.37 C 422.42 595.08 429.18 600.53 432.83 607.15 C 433.73 609.52 430.82 609.05 429.58 608.40 C 416.91 601.48 408.12 591.90 397.32 582.71 C 381.99 569.36 366.12 556.55 351.05 542.93 C 332.28 526.39 312.05 511.09 292.29 495.73 C 288.64 492.83 284.45 490.23 281.29 486.80 C 281.89 484.36 282.57 483.39 284.97 485.02 Z"
       id="p46" />
    <path
       d="M 275.98 493.10 C 277.67 493.80 279.02 495.44 280.41 496.62 C 293.06 508.75 308.90 518.27 322.36 529.67 C 345.37 548.94 368.05 568.69 391.32 587.70 C 394.64 590.43 398.25 592.73 401.66 595.32 C 406.05 598.67 409.58 602.76 414.08 605.92 C 417.61 608.47 421.65 611.23 424.27 614.76 C 425.03 615.77 424.49 616.85 423.92 617.80 C 419.76 616.42 416.16 612.91 412.66 610.33 C 373.45 580.22 337.65 547.00 298.35 517.68 C 291.45 512.59 284.54 507.49 277.76 502.26 C 276.13 500.86 273.83 499.05 273.28 496.90 C 273.27 495.63 274.62 493.23 275.98 493.10 Z"
       id="p47" />
    <path
       d="M 691.35 500.67 C 695.38 505.49 697.38 511.61 701.55 516.47 C 706.85 522.68 712.89 528.80 719.80 533.20 C 723.04 535.32 726.50 537.12 729.71 539.27 C 730.53 540.00 732.32 540.71 731.98 542.01 C 728.20 542.60 723.91 540.99 720.46 539.55 C 710.72 535.55 702.07 528.51 696.32 519.69 C 693.12 514.03 690.18 506.37 688.76 500.04 C 688.88 497.84 690.77 499.95 691.35 500.67 Z"
       id="p48" />
    <path
       d="M 425.58 549.11 C 424.93 554.49 423.36 559.49 423.57 565.00 C 423.61 574.12 426.95 583.02 433.98 589.03 C 441.18 595.15 449.91 600.83 459.31 602.66 C 471.39 604.98 484.81 602.51 494.14 594.16 C 497.75 591.11 500.23 586.71 504.02 583.97 C 505.33 584.62 506.38 585.57 507.41 586.59 C 514.97 593.98 519.49 604.60 520.97 614.97 C 521.68 622.97 521.67 631.23 520.18 639.15 C 517.97 649.45 515.08 659.37 509.22 668.24 C 498.95 684.06 482.49 695.88 464.06 700.08 C 456.71 702.24 448.64 702.06 441.06 701.57 C 434.65 700.68 428.34 698.71 422.15 696.85 C 417.62 695.46 413.98 692.61 410.84 689.15 C 403.61 681.21 394.95 674.03 388.70 665.32 C 381.71 655.17 375.92 644.31 370.96 633.04 C 365.27 621.34 359.65 609.20 358.66 596.00 C 358.59 590.97 358.03 584.89 360.16 580.23 C 365.40 582.02 369.49 587.80 373.97 591.04 C 380.92 596.06 387.48 601.59 394.53 606.47 C 401.25 611.14 406.94 616.76 414.04 620.96 C 416.21 622.42 419.34 624.06 420.44 626.53 C 422.65 632.96 420.76 640.08 424.76 646.24 C 427.67 650.50 432.37 654.02 437.16 655.87 C 442.43 657.96 447.46 656.76 452.90 657.21 C 455.37 657.41 457.37 659.84 457.84 662.15 C 458.09 665.71 456.27 669.54 456.05 673.00 C 455.95 675.74 457.45 677.76 459.19 679.69 C 462.44 678.61 465.31 676.07 467.81 673.81 C 472.03 669.70 476.13 665.44 479.88 660.90 C 484.63 655.38 489.14 650.04 492.49 643.51 C 493.43 641.60 494.02 639.63 493.53 637.51 C 491.31 636.45 488.72 635.43 486.23 635.42 C 482.28 636.11 480.62 639.51 477.70 641.78 C 476.23 642.67 474.93 640.81 474.36 639.66 C 473.68 635.13 474.70 630.05 473.60 625.40 C 472.09 618.64 467.67 612.66 461.47 609.52 C 455.88 606.60 450.05 606.32 444.13 604.90 C 441.10 604.22 439.15 602.06 437.04 599.97 C 423.60 585.95 409.14 573.36 396.00 559.00 C 394.74 557.49 393.11 556.00 392.33 554.17 C 395.80 552.64 399.35 551.82 403.04 551.02 C 410.29 549.51 418.18 548.34 425.58 549.11 Z"
       id="p49" />
    <path
       d="M 339.31 564.71 C 343.00 566.71 346.69 569.16 349.59 572.21 C 348.87 576.26 347.54 579.86 347.22 583.98 C 346.75 589.96 347.15 596.03 347.29 602.02 C 347.89 608.30 349.48 614.56 351.47 620.53 C 357.06 638.31 365.77 655.13 376.90 670.08 C 382.60 677.83 388.46 685.03 396.46 690.55 C 401.57 694.41 408.15 697.82 412.03 702.96 L 411.59 703.63 C 406.64 705.45 400.98 705.82 395.77 706.50 C 371.90 708.48 346.84 706.70 323.03 704.41 C 315.97 704.06 307.99 704.87 301.21 702.76 C 300.63 698.42 302.49 693.44 304.77 689.77 C 305.98 687.40 307.80 685.08 307.70 682.34 C 305.43 682.32 303.49 681.97 301.73 683.71 C 296.08 688.14 294.82 694.20 292.58 700.62 C 288.54 701.48 284.37 699.21 281.45 696.58 C 279.83 689.77 283.75 685.31 286.76 679.75 C 287.66 677.81 289.48 675.16 289.01 672.99 C 286.98 672.37 284.49 673.64 282.90 674.87 C 278.61 678.26 276.35 683.36 274.20 688.22 C 273.68 689.02 273.24 690.88 272.11 690.85 C 270.95 689.41 270.04 687.89 269.75 686.03 C 268.61 679.21 271.49 672.08 276.14 667.14 C 279.41 663.67 283.65 661.91 287.87 659.89 C 293.08 657.50 298.14 655.45 304.00 655.70 C 312.33 655.46 319.71 657.84 327.75 659.44 C 335.87 661.56 344.05 663.62 352.23 665.47 C 356.44 665.61 361.23 666.65 364.63 663.59 C 364.95 661.42 363.80 660.08 362.38 658.63 C 357.94 654.36 353.08 650.64 348.75 646.26 C 341.19 639.16 335.46 630.00 331.58 620.43 C 326.91 609.67 325.66 597.62 328.10 586.13 C 329.20 579.59 330.49 572.13 334.78 566.80 C 336.03 565.55 337.33 563.30 339.31 564.71 Z"
       id="p50" />
    <path
       d="M 773.28 589.30 C 777.49 588.47 782.09 588.74 786.27 589.64 C 798.43 592.29 808.47 602.42 810.66 614.71 C 805.54 617.05 799.65 619.45 793.95 619.39 C 790.04 618.61 786.39 616.04 782.98 614.04 C 781.10 612.93 780.16 611.59 779.46 609.55 C 777.75 604.58 776.20 599.55 774.34 594.63 C 773.67 592.89 773.20 591.18 773.28 589.30 Z"
       id="p51" />
    <path
       d="M 757.39 597.34 C 759.03 596.44 759.82 596.52 760.92 598.09 C 763.30 602.00 764.36 606.89 765.79 611.22 C 766.53 613.68 767.41 617.07 766.47 619.53 C 764.44 622.35 761.54 624.65 759.04 627.05 C 757.91 627.94 757.11 629.29 755.50 628.44 C 749.76 625.57 743.99 622.09 739.15 617.86 C 742.52 609.42 749.48 601.80 757.39 597.34 Z"
       id="p52" />
    <path
       d="M 590.19 624.23 C 612.95 625.60 633.64 640.98 641.72 662.28 C 643.92 667.71 645.46 672.75 644.54 678.71 C 643.45 678.92 642.43 678.87 641.48 678.55 C 639.32 675.25 637.89 671.45 636.00 667.98 C 627.40 652.04 613.27 638.85 595.94 633.06 C 593.08 631.99 589.78 631.35 587.21 629.69 C 586.35 627.68 587.86 624.44 590.19 624.23 Z"
       id="p53" />
    <path
       d="M 813.80 629.22 C 815.07 635.76 813.51 643.08 811.26 649.27 C 809.52 653.65 807.47 658.70 803.62 661.65 C 801.29 663.45 798.36 664.68 795.45 663.52 C 791.58 661.20 788.69 656.64 789.02 652.02 C 789.17 646.49 790.41 640.85 791.51 635.43 C 792.21 632.27 795.38 632.57 797.90 631.84 C 803.19 630.95 808.53 629.11 813.80 629.22 Z"
       id="p54" />
    <path
       d="M 733.25 633.15 L 734.04 632.88 C 739.03 634.93 743.69 637.93 748.31 640.70 C 750.17 641.94 752.95 643.47 752.86 646.04 C 752.39 653.92 749.44 661.69 745.55 668.50 C 744.49 669.24 743.00 667.38 742.14 666.86 C 737.75 663.02 732.03 659.97 728.08 655.81 C 728.21 652.11 729.99 648.43 730.70 644.79 C 731.61 641.03 731.64 636.66 733.25 633.15 Z"
       id="p55" />
    <path
       d="M 464.22 641.30 C 467.49 641.87 470.37 645.12 472.99 647.04 C 474.27 648.40 477.45 650.01 474.88 651.89 C 472.95 653.87 471.01 651.88 469.37 650.64 C 466.87 648.39 464.15 644.81 464.22 641.30 Z"
       id="p56" />
    <path
       d="M 458.01 648.24 C 462.23 649.14 467.07 653.53 467.87 657.83 C 466.03 659.96 464.70 658.13 462.97 657.04 C 460.27 654.96 457.13 652.01 458.01 648.24 Z"
       id="p57" />
    <path
       d="M 721.94 667.93 C 723.91 668.73 725.65 670.38 727.26 671.74 C 731.22 675.23 735.23 678.19 738.73 682.19 C 737.49 685.12 735.10 687.65 732.98 689.99 C 727.95 694.98 721.80 699.36 715.14 701.85 C 713.02 699.55 711.74 696.37 710.49 693.52 C 708.84 689.21 707.18 684.75 706.43 680.18 C 710.15 677.20 714.27 675.16 717.42 671.43 C 718.61 670.38 720.20 667.71 721.94 667.93 Z"
       id="p58" />
    <path
       d="M 676.29 686.23 C 680.00 685.26 684.21 685.59 688.02 685.67 C 689.75 685.90 692.63 685.68 693.66 687.38 C 695.16 689.75 695.70 692.91 696.42 695.61 C 697.35 699.46 698.95 702.72 698.76 706.79 C 690.23 708.93 680.72 708.19 671.97 707.99 C 670.47 707.78 665.62 707.33 666.03 705.07 C 667.83 701.03 670.57 697.46 672.39 693.40 C 673.61 691.05 674.52 688.21 676.29 686.23 Z"
       id="p59" />
    <path
       d="M 328.00 745.77 C 341.00 746.03 354.02 749.12 366.08 753.91 C 378.99 758.93 390.56 766.89 399.30 777.68 C 407.78 787.84 413.16 800.11 415.68 813.06 C 416.43 820.33 417.69 827.14 416.56 834.46 C 415.26 850.25 407.97 865.56 396.52 876.51 C 393.71 879.11 390.59 881.29 387.63 883.69 C 386.90 884.43 385.61 885.16 386.93 886.11 C 392.51 890.53 399.46 893.34 406.46 894.45 C 412.10 895.34 417.30 894.06 422.82 894.18 C 423.56 898.22 422.93 902.03 420.17 905.16 C 416.59 909.06 411.19 911.54 406.24 913.23 C 393.51 916.93 379.01 915.42 367.74 908.25 C 364.11 906.01 361.25 902.58 357.56 900.51 C 354.31 899.46 350.06 901.01 346.76 901.53 C 336.87 902.95 326.96 903.53 316.96 903.03 C 310.46 902.24 304.03 902.16 297.68 900.34 C 285.01 897.68 272.97 893.21 262.41 885.58 C 249.30 876.19 238.87 863.02 234.76 847.24 C 232.78 840.94 232.59 834.54 231.95 828.03 C 231.39 804.56 241.64 780.82 259.83 765.81 C 271.56 756.60 285.97 750.52 300.55 747.59 C 309.63 745.44 318.79 745.75 328.00 745.77 Z M 339.77 884.86 C 338.57 882.45 336.23 880.55 334.44 878.56 C 327.41 871.66 321.26 865.03 312.07 860.94 C 309.31 859.50 305.02 858.43 303.33 855.68 C 302.64 853.61 305.45 851.81 306.94 850.95 C 322.06 842.87 342.64 844.94 355.33 856.70 C 358.10 858.86 360.73 861.70 363.96 863.14 C 366.82 860.89 367.57 855.50 368.29 852.10 C 373.61 828.88 368.67 805.18 357.55 784.44 C 352.05 774.25 342.56 766.13 331.54 762.48 C 325.84 760.60 319.92 760.27 313.97 760.78 C 305.64 761.60 297.64 765.87 292.41 772.43 C 285.60 780.78 281.70 791.72 280.24 802.30 C 278.61 809.99 278.87 818.13 279.34 825.94 C 280.54 832.72 280.90 839.41 283.05 845.93 C 286.21 857.56 291.23 868.50 300.09 876.90 C 307.46 884.02 317.69 888.74 327.99 889.01 C 332.22 889.21 336.83 888.09 339.77 884.86 Z"
       id="p60" />
    <path
       d="M 523.26 748.57 C 533.31 750.08 543.29 755.28 553.03 758.02 C 558.66 759.60 563.44 756.16 568.79 757.23 C 570.22 765.09 571.45 773.08 572.12 781.05 C 572.60 785.82 573.97 791.26 573.09 795.99 C 572.57 799.20 569.38 801.78 566.15 801.67 C 563.88 801.23 561.96 799.12 560.71 797.28 C 557.15 792.07 554.54 786.45 550.51 781.48 C 546.02 775.65 538.78 771.84 532.24 768.75 C 525.38 765.69 517.55 762.97 509.96 763.12 C 504.08 763.43 498.55 764.11 493.66 767.66 C 488.19 771.24 485.25 778.00 487.68 784.32 C 490.58 791.89 497.98 796.03 505.11 798.90 C 521.06 805.64 536.97 807.12 552.35 814.67 C 561.63 819.20 570.48 824.91 576.47 833.53 C 580.16 838.95 581.42 844.90 582.60 851.23 C 583.28 855.40 582.67 859.43 581.62 863.47 C 580.39 869.75 577.64 875.70 573.77 880.77 C 566.10 890.52 554.95 896.95 543.05 900.08 C 532.60 903.04 521.77 903.34 511.00 903.15 C 505.26 903.41 499.68 902.41 493.97 902.15 C 486.34 901.13 478.83 899.17 471.27 897.72 C 464.27 895.84 457.50 896.35 450.33 895.62 C 445.72 885.55 445.91 875.77 444.94 865.01 C 444.96 860.72 444.65 856.34 445.12 852.07 C 445.57 849.06 447.76 846.60 451.00 846.83 C 454.47 846.51 456.60 850.18 458.46 852.54 C 464.35 861.10 470.04 869.20 478.30 875.71 C 486.16 881.81 495.51 884.93 505.24 886.55 C 512.26 887.54 519.78 885.86 526.33 883.33 C 534.55 880.22 540.01 871.64 540.20 862.99 C 540.12 856.82 535.41 852.32 530.15 849.85 C 516.02 843.44 499.68 840.89 484.90 836.13 C 474.35 832.75 464.60 828.28 456.69 820.31 C 449.94 813.86 445.77 804.38 446.18 795.00 C 445.83 786.08 449.72 776.84 454.43 769.43 C 460.40 760.01 469.73 753.65 480.24 750.24 C 494.01 745.93 509.18 745.70 523.26 748.57 Z"
       id="p61" />
    <path
       d="M 680.00 752.80 C 700.15 752.90 722.90 750.73 742.05 757.95 C 758.83 763.87 773.50 774.68 783.63 789.36 C 791.04 800.51 795.29 813.57 795.17 827.00 C 795.33 836.51 793.72 845.89 789.46 854.45 C 781.87 870.88 767.57 883.18 750.98 889.99 C 736.22 896.27 720.88 897.79 705.03 898.66 C 683.35 898.99 661.67 898.71 640.00 898.87 C 634.03 898.85 627.90 899.68 621.96 899.23 C 619.78 898.98 617.56 898.69 616.24 896.73 C 615.77 894.93 615.62 892.35 616.82 890.80 C 620.48 886.13 625.64 883.83 628.81 878.80 C 631.53 874.55 631.86 869.91 631.78 865.00 C 631.65 858.02 631.99 851.02 631.60 844.06 C 630.63 836.68 630.84 829.42 630.94 822.00 C 630.97 807.00 630.90 791.99 630.98 776.99 C 630.96 775.45 631.01 773.81 630.67 772.31 C 628.22 767.57 620.45 766.88 617.35 762.63 C 616.49 761.00 616.46 758.03 617.42 756.43 C 619.08 754.90 621.97 754.62 624.12 754.23 C 642.29 751.58 661.64 752.97 680.00 752.80 Z M 675.02 863.00 C 675.00 869.01 674.92 874.81 680.04 878.93 C 686.16 883.17 694.66 884.34 701.93 883.61 C 713.04 882.16 723.57 877.42 731.82 869.81 C 740.45 862.22 745.68 850.51 748.41 839.55 C 751.23 822.79 748.67 805.22 739.01 791.00 C 734.95 784.95 729.66 780.48 723.98 776.02 C 716.31 769.99 705.44 768.72 696.00 768.88 C 689.48 769.02 682.37 768.21 676.45 771.39 C 674.94 772.28 674.57 773.24 674.57 774.97 C 674.47 778.97 674.58 782.99 674.59 787.00 C 675.50 812.35 673.79 837.64 675.02 863.00 Z"
       id="p62" />
    <path
       d="M 313.97 760.78 C 319.92 760.27 325.84 760.60 331.54 762.48 C 342.56 766.13 352.05 774.25 357.55 784.44 C 368.67 805.18 373.61 828.88 368.29 852.10 C 367.57 855.50 366.82 860.89 363.96 863.14 C 360.73 861.70 358.10 858.86 355.33 856.70 C 342.64 844.94 322.06 842.87 306.94 850.95 C 305.45 851.81 302.64 853.61 303.33 855.68 C 305.02 858.43 309.31 859.50 312.07 860.94 C 321.26 865.03 327.41 871.66 334.44 878.56 C 336.23 880.55 338.57 882.45 339.77 884.86 C 336.83 888.09 332.22 889.21 327.99 889.01 C 317.69 888.74 307.46 884.02 300.09 876.90 C 291.23 868.50 286.21 857.56 283.05 845.93 C 280.90 839.41 280.54 832.72 279.34 825.94 C 278.87 818.13 278.61 809.99 280.24 802.30 C 281.70 791.72 285.60 780.78 292.41 772.43 C 297.64 765.87 305.64 761.60 313.97 760.78 Z"
       id="p63" />
    <path
       d="M 696.00 768.88 C 705.44 768.72 716.31 769.99 723.98 776.02 C 729.66 780.48 734.95 784.95 739.01 791.00 C 748.67 805.22 751.23 822.79 748.41 839.55 C 745.68 850.51 740.45 862.22 731.82 869.81 C 723.57 877.42 713.04 882.16 701.93 883.61 C 694.66 884.34 686.16 883.17 680.04 878.93 C 674.92 874.81 675.00 869.01 675.02 863.00 C 673.79 837.64 675.50 812.35 674.59 787.00 C 674.58 782.99 674.47 778.97 674.57 774.97 C 674.57 773.24 674.94 772.28 676.45 771.39 C 682.37 768.21 689.48 769.02 696.00 768.88 Z"
       id="p64" />
  </defs>
  <g
     inkscape:groupmode="layer"
     id="layer2"
     inkscape:label="bg"
     sodipodi:insensitive="true">
    <rect
       style="fill:#1e294d;fill-opacity:1;stroke-width:0.749418"
       id="rect132"
       width="1024"
       height="1024"
       x="0"
       y="0" />
  </g>
  <g
     id="g130"
     transform="matrix(1.14,0,0,1.14,-52.985395,21.813225)">
    <use
       fill="#0d0908"
       xlink:href="#p1"
       id="use67" />
    <use
       fill="#e1c776"
       xlink:href="#p2"
       id="use68" />
    <use
       fill="#e1c776"
       xlink:href="#p3"
       id="use69" />
    <use
       fill="#e1c776"
       xlink:href="#p4"
       id="use70" />
    <use
       fill="#e1c776"
       xlink:href="#p5"
       id="use71" />
    <use
       fill="#e1c776"
       xlink:href="#p6"
       id="use72" />
    <use
       fill="#e1c776"
       xlink:href="#p7"
       id="use73" />
    <use
       fill="#e1c776"
       xlink:href="#p8"
       id="use74" />
    <use
       fill="#e4821b"
       xlink:href="#p9"
       id="use75" />
    <use
       fill="#e1c776"
       xlink:href="#p10"
       id="use76" />
    <use
       fill="#e1c776"
       xlink:href="#p11"
       id="use77" />
    <use
       fill="#e1c776"
       xlink:href="#p12"
       id="use78" />
    <use
       fill="#e1c776"
       xlink:href="#p13"
       id="use79" />
    <use
       fill="#e1c776"
       xlink:href="#p14"
       id="use80" />
    <use
       fill="#e1c776"
       xlink:href="#p15"
       id="use81" />
    <use
       fill="#e1c776"
       xlink:href="#p16"
       id="use82" />
    <use
       fill="#0d0908"
       xlink:href="#p17"
       id="use83" />
    <use
       fill="#e1c776"
       xlink:href="#p18"
       id="use84" />
    <use
       fill="#0d0908"
       xlink:href="#p19"
       id="use85" />
    <use
       fill="#e1c776"
       xlink:href="#p20"
       id="use86" />
    <use
       fill="#e1c776"
       xlink:href="#p21"
       id="use87" />
    <use
       fill="#e1c776"
       xlink:href="#p22"
       id="use88" />
    <use
       fill="#e1c776"
       xlink:href="#p23"
       id="use89" />
    <use
       fill="#e1c776"
       xlink:href="#p24"
       id="use90" />
    <use
       fill="#0d0908"
       xlink:href="#p25"
       id="use91" />
    <use
       fill="#0d0908"
       xlink:href="#p26"
       id="use92" />
    <use
       fill="#e1c776"
       xlink:href="#p27"
       id="use93" />
    <use
       fill="#e1c776"
       xlink:href="#p28"
       id="use94" />
    <use
       fill="#e1c776"
       xlink:href="#p29"
       id="use95" />
    <use
       fill="#0d0908"
       xlink:href="#p30"
       id="use96" />
    <use
       fill="#0d0908"
       xlink:href="#p31"
       id="use97" />
    <use
       fill="#0d0908"
       xlink:href="#p32"
       id="use98" />
    <use
       fill="#e1c776"
       xlink:href="#p33"
       id="use99" />
    <use
       fill="#0d0908"
       xlink:href="#p34"
       id="use100" />
    <use
       fill="#0d0908"
       xlink:href="#p35"
       id="use101" />
    <use
       fill="#e4821b"
       xlink:href="#p36"
       id="use102" />
    <use
       fill="#f22b78"
       xlink:href="#p37"
       id="use103" />
    <use
       fill="#0d0908"
       xlink:href="#p38"
       id="use104" />
    <use
       fill="#e1c776"
       xlink:href="#p39"
       id="use105" />
    <use
       fill="#0d0908"
       xlink:href="#p40"
       id="use106" />
    <use
       fill="#e4821b"
       xlink:href="#p41"
       id="use107" />
    <use
       fill="#e1c776"
       xlink:href="#p42"
       id="use108" />
    <use
       fill="#915436"
       xlink:href="#p43"
       id="use109" />
    <use
       fill="#f22b78"
       xlink:href="#p44"
       id="use110" />
    <use
       fill="#f22b78"
       xlink:href="#p45"
       id="use111" />
    <use
       fill="#915436"
       xlink:href="#p46"
       id="use112" />
    <use
       fill="#915436"
       xlink:href="#p47"
       id="use113" />
    <use
       fill="#f22b78"
       xlink:href="#p48"
       id="use114" />
    <use
       fill="#915436"
       xlink:href="#p49"
       id="use115" />
    <use
       fill="#e4821b"
       xlink:href="#p50"
       id="use116" />
    <use
       fill="#e4821b"
       xlink:href="#p51"
       id="use117" />
    <use
       fill="#e4821b"
       xlink:href="#p52"
       id="use118" />
    <use
       fill="#0d0908"
       xlink:href="#p53"
       id="use119" />
    <use
       fill="#e4821b"
       xlink:href="#p54"
       id="use120" />
    <use
       fill="#e4821b"
       xlink:href="#p55"
       id="use121" />
    <use
       fill="#915436"
       xlink:href="#p56"
       id="use122" />
    <use
       fill="#915436"
       xlink:href="#p57"
       id="use123" />
    <use
       fill="#e4821b"
       xlink:href="#p58"
       id="use124" />
    <use
       fill="#e4821b"
       xlink:href="#p59"
       id="use125" />
  </g>
</svg>
